<svg xmlns="http://www.w3.org/2000/svg" id="Camada_2" data-name="Camada 2" viewBox="0 0 1287.68 450.81"><defs><style>.cls-1{fill:#c02126}.cls-2{fill:#6a0b16}.cls-3{fill:#fff}.cls-4{fill:#81151e}.cls-5{fill:#ee4036}.cls-6{fill:#ec1c24}.cls-7{fill:#a41e23}</style></defs><g id="Camada_1-2" data-name="Camada 1"><path d="M1022.16 286.57s-.07-.03-.1-.05c-5.83-3.08-10.71-6.78-14.72-10.53 0 0-.02 0-.02-.02l-.67-.58c-1.08-.95-2.26-2.07-3.51-3.36a841.862 841.862 0 0 1 19.02 22.82v-8.28Zm164.86 45.44c-.04.18-.08.35-.13.53-.4 1.46-.99 2.64-1.56 3.55a6.3 6.3 0 0 0-.56-.65c-.04-.04-.09-.08-.14-.13.79-1.1 1.59-2.2 2.39-3.3Zm-3.81 16.56c-1.69-.11-3.29-.68-4.57-1.61-.52-.38-.99-.82-1.38-1.3-7.38 10.49-14.3 20.72-20.68 30.49.1.72.08 1.47-.02 2.2-.17 1.12-.49 2.23-1 3.31a9.985 9.985 0 0 1-2.14 2.95c-.91.87-2.01 1.56-3.21 2.06l-.54.21c-.76 1.18-1.5 2.36-2.23 3.53-.07.12-.15.23-.22.35a882.91 882.91 0 0 0-10.12 16.54 664.07 664.07 0 0 0-7.88 13.56c-.44 1.01-.99 2.03-1.59 3.03-.33.55-.67 1.08-1 1.6-.85 1.52-1.67 3.01-2.46 4.47-.27.51-.54 1.01-.81 1.5-.27-.49-.54-.99-.81-1.5-.79-1.45-1.61-2.94-2.46-4.47-.34-.52-.67-1.05-1.01-1.6-.6-1-1.15-2.02-1.59-3.03-2.42-4.29-5.05-8.82-7.88-13.56-3.14-5.27-6.52-10.8-10.12-16.54-.07-.11-.15-.23-.22-.35-.74-1.17-1.47-2.35-2.24-3.53-.18-.07-.36-.14-.53-.21-1.2-.5-2.29-1.19-3.21-2.06-.89-.85-1.6-1.84-2.1-2.89-1.74.68-3.51 1.25-5.32 1.68 9.82 15.37 18.22 29.51 24.88 41.6 2.88 5.21 5.43 10.04 7.66 14.42.12.25.25.5.38.74 1.73 3.42 3.26 6.55 4.57 9.37 1.32-2.81 2.85-5.95 4.57-9.37.13-.25.25-.49.38-.74 2.23-4.38 4.78-9.21 7.66-14.42 11.46-20.81 28.03-47.65 48.2-76.42-.32 0-.65 0-.96-.03Z" class="cls-5"/><path d="M1007.78 237.21a9.11 9.11 0 0 1-1.71-.86c-.18-.12-.36-.24-.52-.37a8.1 8.1 0 0 1-2.05-2.28c-.45-.77-.72-1.5-.89-2.09-.23-.82-.31-1.4-.37-1.67-.03-.13-.05-.19-.07-.19-.04 0-.13.68.11 1.95.13.63.34 1.41.78 2.26.43.85 1.1 1.76 2.07 2.56.36.3.76.59 1.21.84.02.01.03.02.05.03.25.14.51.28.77.4.16.2.35.39.53.59.17-.35.34-.69.51-1.04l-.42-.12Z" class="cls-2"/><path d="M994.21 258.23a82.487 82.487 0 0 1-6.1-13.22c-.02-.05-.04-.1-.05-.15-.1-.25-.19-.51-.27-.77-.21-.59-.41-1.2-.6-1.81-.53-1.63-1.01-3.31-1.44-5.04-.7-2.69-1.16-5.5-1.33-8.41-.34-5.82.43-12.02 2.35-18.08.3-.95.62-1.89.99-2.83.26-.7.54-1.4.84-2.09 1.86-4.33 4.35-8.5 7.54-12.21a40.221 40.221 0 0 1 5.64-5.45c1.95-1.54 4.03-2.87 6.2-3.97.73-.37 1.48-.72 2.23-1.02.58-.25 1.17-.48 1.76-.68.37-.13.75-.26 1.12-.37.05-.01.09-.03.14-.04-.23-.53-.46-1.05-.7-1.58h-.01c-.38.12-.75.24-1.12.37a36.063 36.063 0 0 0-6.05 2.77c-.79.45-1.56.93-2.33 1.45l-.57.39c-2.8 1.96-5.36 4.32-7.64 6.98-3.33 3.89-5.92 8.24-7.83 12.74l-.21-.07c-.34.97-.63 1.83-.87 2.56l-.49 1.53s.04-.03.05-.05c.07-.22.16-.45.25-.71-.08.23-.16.46-.23.69-.12.35-.24.71-.35 1.07-.04.11-.07.22-.1.32s-.05.19-.08.28c-.13.43-.26.87-.38 1.3-.18.67-.34 1.33-.5 2 .14-.85.31-1.77.52-2.74.02-.08.04-.16.05-.25.1-.47.22-.97.34-1.47.13-.55.28-1.12.44-1.7 0-.05.02-.1.04-.16 1.19-4.28 3.08-9.29 6.14-14.3 1.33-2.18 2.89-4.37 4.71-6.45.27-.3.53-.59.8-.88 2.16-2.34 4.62-4.57 7.4-6.47a37.42 37.42 0 0 1 5.88-3.27c-.2-.38-.4-.77-.59-1.16-1.67.74-3.33 1.6-4.92 2.62.39-.29.8-.58 1.24-.86 1.05-.7 2.23-1.39 3.52-2.08-.16-.32-.32-.63-.48-.95-1.3.74-2.5 1.49-3.56 2.26-.31.22-.6.43-.88.66 1.22-1.43 2.46-2.89 3.71-4.36-.18-.35-.35-.69-.53-1.04-9.16 10.92-17.76 20.66-25.37 28.92a690.803 690.803 0 0 1-18.27 19.12l-.23.23c-1.56 1.58-3.01 3.02-4.32 4.31-.34.33-.66.65-.97.96-.11.1-.21.21-.31.31.1.1.2.19.31.3.31.3.64.63.97.96 1.31 1.3 2.76 2.74 4.32 4.31.08.09.16.16.23.24 5 5.04 11.21 11.46 18.27 19.12 3.9 4.23 8.07 8.86 12.42 13.82.25-.06.52-.1.8-.12.04-.06.09-.12.14-.18.01-.03.02-.05.03-.08a730.73 730.73 0 0 0-12.77-14.03c-7.13-7.61-13.41-13.97-18.48-18.93-.08-.09-.17-.17-.25-.25-1.59-1.56-3.07-2.97-4.4-4.25-.34-.32-.67-.63-.97-.93.31-.3.64-.61.97-.93 1.34-1.27 2.81-2.68 4.4-4.24.08-.08.17-.17.26-.25 5.07-4.96 11.35-11.31 18.47-18.93 2.52-2.7 5.15-5.55 7.87-8.55-.1.16-.19.31-.27.47-2.11 3.88-4.28 7.58-5.03 10.63-.45 1.39-.84 2.73-1.16 4-.28 1.15-.52 2.25-.71 3.29-5.36 5.66-10.04 10.4-13.82 14.16-.12.12-.23.24-.35.36.12.12.23.24.35.35 4.13 4.11 9.34 9.4 15.35 15.78.43 1.36.88 2.69 1.37 3.98 1.85 5 4.07 9.46 6.39 13.35.97 1.63 1.96 3.12 2.95 4.54.18-.41.36-.81.55-1.22-.05-.08-.11-.16-.17-.24-.76-1.17-1.52-2.4-2.26-3.71Zm-23.79-32.83c3.65-3.52 8.12-7.93 13.21-13.18-.11.64-.19 1.26-.27 1.84-.2 1.59-.3 2.97-.35 4.11-.03.97-.04 1.79-.02 2.41v.02c-.3 2.82-.36 5.62-.17 8.34.19 3.01.7 5.95 1.44 8.7.2.77.41 1.52.63 2.26a546.433 546.433 0 0 0-14.48-14.49Z" class="cls-2"/><path d="M997.85 249.81c-.76-.75-1.46-1.53-2.11-2.4-.1-.13-.2-.26-.29-.39-1.72-2.36-3-5.09-3.78-7.99-.81-3.07-1.04-6.25-.66-9.31.38-3.05 1.39-5.98 3-8.46.12-.19.24-.37.37-.55.37-.54.77-1.05 1.2-1.54.47-.54.97-1.06 1.5-1.54.17-.16.34-.31.52-.46.83-.69 1.72-1.31 2.65-1.83.67-.38 1.38-.71 2.1-.99.36-.14.73-.27 1.1-.39 1.56-.49 3.17-.76 4.77-.81 2.73-.1 5.39.43 7.74 1.49 1.28.57 2.46 1.31 3.49 2.17.26-.43.53-.86.8-1.29-1.09-.91-2.32-1.68-3.64-2.28a19.14 19.14 0 0 0-8.43-1.7c-.68.01-1.37.07-2.05.15.05-.03.11-.07.16-.1.91-.6 1.98-1.16 3.17-1.71 1.17-.53 2.47-.98 3.88-1.26 1.4-.27 2.91-.36 4.44-.16 1.06.13 2.12.42 3.14.85-.11-.51-.23-1.02-.34-1.53-.87-.29-1.76-.49-2.64-.6-1.68-.2-3.33-.07-4.84.25-1.51.34-2.88.87-4.1 1.46-1.2.6-2.29 1.24-3.23 1.93-.54.39-1.02.79-1.45 1.19-1.65.38-3.27.97-4.79 1.81a27.91 27.91 0 0 1 5.63-6.3c1.65-1.35 3.63-2.62 5.93-3.59 2.29-.96 4.91-1.61 7.71-1.67h.52c-.09-.4-.19-.8-.28-1.21h-.27c-2.95.09-5.71.83-8.1 1.88-2.39 1.05-4.42 2.43-6.1 3.88a26.89 26.89 0 0 0-5.61 6.78c-.17.29-.32.57-.46.83-.61.38-1.19.8-1.75 1.25.08-.23.18-.46.27-.7 1.01-2.54 2.37-5.37 4.43-8.08 1.04-1.35 2.25-2.66 3.68-3.81 1.45-1.16 3.07-2.24 4.84-3.15 2.43-1.26 5.19-2.21 8.13-2.72-.13-.51-.26-1.02-.39-1.52-3.05.58-5.9 1.61-8.42 2.96a30.41 30.41 0 0 0-5.02 3.39c-1.51 1.26-2.77 2.68-3.82 4.12-2.09 2.89-3.41 5.85-4.36 8.48-.08.25-.17.5-.26.74-.17.53-.34 1.04-.49 1.55a19.67 19.67 0 0 0-2.79 3.41c-1.76 2.72-2.87 5.89-3.28 9.17-.42 3.29-.17 6.7.7 9.98.16.61.34 1.21.55 1.82.9 2.59 2.19 5.03 3.82 7.17a24.41 24.41 0 0 0 3.38 3.57c.02.02.05.04.07.06a50.6 50.6 0 0 0 1.67 2.82c.01.01.02.04.04.05l.22.34c.43-.94.86-1.89 1.29-2.83-.73-.55-1.45-1.12-2.15-1.73-.35-.31-.69-.63-1.02-.95Zm114.03 120.56c-.37.78-.81 1.49-1.27 2.13-.46.63-.91 1.24-1.41 1.7-.51.46-1.04.83-1.57 1.13-.98.54-1.91.84-2.68 1.01.04-.49.04-1.03-.04-1.63 0-.06-.03-.13-.04-.19-.11.07-.22.13-.33.2 0 .02.01.04.01.05.11.59.11 1.63.11 1.63l-.02.24s-.04.39-.05.57c-.04.3-.09.57-.13.79-.02.09-.03.17-.05.25-.13.63-.24.95-.2.96.03 0 .35-.64.62-1.97.04-.2.07-.41.09-.64.82-.12 1.81-.4 2.88-.95a8.78 8.78 0 0 0 1.67-1.13c.55-.49 1.02-1.09 1.51-1.73.61-.81 1.2-1.78 1.65-2.86-.25.15-.51.31-.76.46Zm40.74-40.63c-.43 1.19-1.07 2.32-1.95 3.32-.89 1.05-2 1.94-3.23 2.73-1.23.78-2.56 1.46-4 1.91-.66.22-1.35.38-2.05.49-.15.34-.3.68-.46 1.01.97-.12 1.91-.33 2.81-.62 1.52-.5 2.92-1.22 4.2-2.05 1.26-.83 2.45-1.79 3.39-2.92a11.54 11.54 0 0 0 2.12-3.74c.01-.04.02-.09.04-.14h-.86Zm-91.13-226.05c20.63-29.32 37.61-56.73 49.26-77.89 2.88-5.21 5.43-10.04 7.66-14.42.12-.25.25-.49.37-.73 1.73-3.42 3.26-6.55 4.58-9.37 1.32 2.82 2.85 5.95 4.58 9.37.12.24.24.49.37.73 2.23 4.38 4.78 9.22 7.66 14.42 11.65 21.16 28.62 48.57 49.26 77.89h1.46c-20.85-29.53-38.08-57.1-49.98-78.31-3.01-5.36-5.68-10.31-8.01-14.78-.13-.24-.25-.48-.37-.72-1.76-3.39-3.31-6.49-4.66-9.26-.11-.21-.21-.42-.31-.63-.1.2-.2.41-.31.63-1.35 2.78-2.9 5.88-4.66 9.26-.12.23-.25.48-.38.72-2.33 4.47-5 9.42-8.01 14.78-11.89 21.21-29.13 48.78-49.98 78.31h1.46Z" class="cls-2"/><path d="M1071.93 103.69c19.78-28.31 36.07-54.69 47.37-75.2 1.08-1.96 2.11-3.86 3.1-5.7.12-.22.24-.44.35-.66.2-.39.41-.76.61-1.14.2.38.4.76.61 1.14.11.22.23.43.36.66.98 1.84 2.02 3.74 3.1 5.7 11.29 20.52 27.59 46.89 47.37 75.2h1.46c-20-28.51-36.55-55.05-48.09-75.62-1.55-2.75-3-5.39-4.37-7.91-.15-.27-.29-.54-.44-.81-.15.27-.29.54-.44.81-1.36 2.52-2.82 5.16-4.36 7.91-11.53 20.56-28.08 47.1-48.08 75.62h1.45Zm90.65 226.05s.03.09.05.14l-.62.65c-2.19 2.2-4.77 4.11-7.57 5.78a52.6 52.6 0 0 1-4.33 2.32c-1.51.7-3.05 1.43-4.57 2.21-2.74 1.39-5.45 2.93-8.07 4.68-.57.92-1.16 1.84-1.78 2.73.52-.39 1.03-.78 1.56-1.15.74-.51 1.48-1 2.23-1.48 2.16-1.36 4.37-2.58 6.6-3.72 1.51-.77 3.02-1.48 4.54-2.2 1.52-.73 3-1.53 4.43-2.39 2.85-1.71 5.51-3.68 7.78-5.98.07-.07.13-.13.19-.2.33-.34.64-.67.94-1.03.11-.12.2-.25.31-.38h-1.68Zm34.7 0c0 .18.02.37.02.55.01.71 0 1.41-.06 2.11-.05.67-.13 1.33-.23 1.99-.3 1.88-.85 3.69-1.69 5.32-.83 1.63-1.93 3.02-3.23 4.21-1.28 1.19-2.7 2.16-4.21 2.8-.41.17-.83.33-1.25.45-.57.17-1.14.29-1.72.36-.55.06-1.1.08-1.64.05-1.52-.09-2.95-.57-4.09-1.37-.54-.38-1-.82-1.39-1.31-.28-.34-.51-.71-.7-1.09-.12-.24-.22-.49-.31-.73-.43-1.2-.46-2.47-.18-3.6a6.53 6.53 0 0 1 1.54-2.87c1.39-1.54 3.3-2.13 4.69-1.77.19.04.37.1.54.17.41.16.76.38 1.05.62.04.03.07.06.11.09.25.22.46.44.63.65.11.13.2.25.29.37.01.02.03.04.04.06.44.65.61 1.05.66 1.02.03-.01-.07-.43-.46-1.15-.02-.05-.05-.1-.08-.15l.09-.12c.65-.91 1.35-2.12 1.84-3.66.21-.64.38-1.35.5-2.1.05-.29.08-.59.1-.89h-.94c-.32.44-.64.87-.96 1.32-.87 1.2-1.74 2.39-2.6 3.58-.21-.1-.43-.19-.68-.26-.78-.22-1.72-.22-2.65.08-.93.29-1.86.87-2.65 1.69-.79.81-1.45 1.88-1.79 3.14-.34 1.25-.34 2.69.12 4.07.14.43.32.85.56 1.25-2.23 3.18-4.42 6.33-6.57 9.46-4.82 7.02-9.42 13.9-13.75 20.58-.33-.89-.83-1.67-1.44-2.32-.7-.74-1.53-1.31-2.38-1.71-3.43-1.6-7.16-.94-9.06.97-.96.95-1.4 2.12-1.54 3.11-.08.6-.08 1.14-.04 1.63-.77-.16-1.7-.46-2.68-1.01-.52-.29-1.06-.66-1.56-1.13-.5-.46-.94-1.07-1.41-1.7-.91-1.27-1.78-2.83-2.09-4.69-.14-.92-.14-1.91.08-2.9.21-.99.63-1.97 1.2-2.91 1.14-1.89 2.87-3.58 4.86-5.15 1.99-1.58 4.27-3.04 6.71-4.48 2.44-1.43 5.07-2.84 7.81-4.31 2.74-1.47 5.61-2.99 8.47-4.78.37-.23.73-.46 1.1-.7-.18 2.36-.68 4.48-1.54 6.2a17.7 17.7 0 0 1-2.74 4.09.36.36 0 0 0-.07-.1c-.32-.46-.81-.93-1.47-1.27-1.3-.69-3.3-.82-5.18.18-.46.25-.91.58-1.31 1-.4.42-.72.95-.93 1.53-.41 1.16-.34 2.56.3 3.79.62 1.23 1.88 2.17 3.27 2.58 1.35.43 2.88.6 4.42.39 1.54-.2 3.06-.8 4.45-1.65 1.39-.85 2.66-1.96 3.8-3.22a26.335 26.335 0 0 0 5.3-9.13c1.12-3.52 1.57-7.38 1.13-11.28-.08-.74-.2-1.47-.34-2.19.78-1.18 1.48-2.44 2.1-3.75h-1.21c-.38.78-.78 1.54-1.23 2.27-.28.48-.58.95-.9 1.4-.56.83-1.16 1.63-1.79 2.39a31.68 31.68 0 0 1-3.63 3.69c-.42.35-.85.7-1.29 1.03-.36.27-.72.53-1.09.78-.56.39-1.13.77-1.7 1.13-2.8 1.78-5.65 3.31-8.37 4.81-2.73 1.49-5.35 2.93-7.8 4.4-2.45 1.47-4.74 2.97-6.75 4.6-2.01 1.63-3.78 3.4-4.96 5.41-.59 1-1.02 2.06-1.24 3.13-.22 1.07-.2 2.14-.03 3.12.37 1.98 1.32 3.59 2.28 4.87.49.64.96 1.24 1.51 1.73.55.48 1.12.84 1.67 1.13 1.07.55 2.06.83 2.88.95.03.23.05.44.09.64.27 1.32.59 1.97.63 1.97.04-.01-.07-.33-.21-.96-.02-.08-.03-.16-.05-.25-.04-.23-.09-.49-.13-.79-.02-.17-.05-.57-.05-.57l-.02-.24s0-1.04.11-1.63c.17-.94.61-2 1.51-2.83 1.76-1.7 5.28-2.25 8.44-.71 1.56.76 2.99 2.16 3.51 4.04.03.07.04.15.05.23.15.58.2 1.18.17 1.8-.04 1.33-.43 2.72-1.05 4.02-.84 1.77-2.34 3.28-4.25 4.22-.22.11-.45.21-.69.31-.33.14-.67.26-1.02.36-1.98.61-4.18.73-6.39.51-1.25-.13-2.51-.37-3.76-.72a24.69 24.69 0 0 1-4.05-1.49c-2.54-1.19-4.97-2.83-6.97-4.99-1.9-2.06-3.37-4.65-3.72-7.54-.02-.13-.03-.25-.04-.37-.2-1.85-.2-3.74.05-5.62.16-1.25.43-2.49.83-3.72.23-.73.51-1.45.82-2.16-.64.61-1.28 1.21-1.94 1.79v.01c-.11.34-.21.69-.3 1.03-.05-.21-.12-.41-.18-.62-.33.29-.66.58-.99.86.25.93.46 1.86.58 2.8.25 1.88.26 3.77.05 5.62-.01.12-.03.25-.04.37-.36 2.89-1.82 5.48-3.73 7.54-1.99 2.16-4.43 3.8-6.97 4.99-1.32.62-2.68 1.13-4.05 1.49-1.25.36-2.51.59-3.76.72-2.21.22-4.41.1-6.39-.51-.35-.1-.69-.22-1.02-.36-.23-.1-.46-.2-.69-.31-1.86-.91-3.33-2.38-4.19-4.1-.26.11-.53.21-.8.31a9.953 9.953 0 0 0 2.1 2.89c.92.87 2.01 1.56 3.21 2.06.17.07.35.14.53.21.76 1.18 1.5 2.36 2.24 3.53.07.12.15.23.22.35 3.6 5.74 6.98 11.28 10.12 16.54 2.83 4.74 5.46 9.28 7.88 13.56.44 1.01.99 2.03 1.59 3.03.33.55.67 1.08 1.01 1.6.85 1.52 1.67 3.01 2.46 4.47.27.51.54 1.01.81 1.5.26-.49.54-.99.81-1.5.79-1.45 1.61-2.94 2.46-4.47.34-.52.67-1.05 1-1.6.6-1 1.15-2.02 1.59-3.03 2.42-4.29 5.05-8.82 7.88-13.56 3.14-5.27 6.53-10.8 10.12-16.54.07-.11.15-.23.22-.35.73-1.17 1.47-2.35 2.23-3.53l.54-.21c1.2-.5 2.29-1.19 3.21-2.06.91-.86 1.63-1.88 2.14-2.95.51-1.08.83-2.2 1-3.31.11-.74.12-1.48.02-2.2 6.38-9.77 13.3-20 20.68-30.49.39.48.85.92 1.38 1.3 1.28.93 2.88 1.5 4.57 1.61.32.03.64.03.96.03-20.17 28.77-36.74 55.6-48.2 76.42-2.88 5.21-5.43 10.04-7.66 14.42-.13.25-.25.5-.38.74-1.73 3.42-3.26 6.55-4.57 9.37-1.32-2.81-2.85-5.95-4.57-9.37-.13-.25-.25-.49-.38-.74-2.23-4.38-4.78-9.21-7.66-14.42-6.66-12.1-15.06-26.24-24.88-41.6-.33.08-.66.18-1 .25-.05.01-.1.01-.15.02 9.95 15.44 18.49 29.64 25.28 41.75 3.01 5.35 5.68 10.31 8.01 14.78.13.24.25.48.38.72 1.76 3.39 3.31 6.48 4.66 9.25.11.21.21.42.31.63.1-.21.2-.41.31-.63 1.35-2.77 2.9-5.86 4.66-9.25.12-.24.25-.48.37-.72 2.33-4.47 5-9.42 8.01-14.78 11.72-20.89 28.6-47.95 49.03-76.99.87-.15 1.72-.4 2.55-.74 1.65-.68 3.18-1.7 4.56-2.95 1.38-1.24 2.61-2.77 3.5-4.51.9-1.74 1.5-3.66 1.82-5.65.21-1.28.31-2.57.32-3.89.24-.32.47-.64.71-.96h-1.92Zm-10.26 2.27c-.04.18-.08.35-.13.53-.4 1.46-.99 2.64-1.56 3.55a6.3 6.3 0 0 0-.56-.65c-.04-.04-.09-.08-.14-.13.79-1.1 1.59-2.2 2.39-3.3Zm-21.98 12.42c.15-.83.25-1.71.3-2.61.69-.48 1.36-.99 2.01-1.55 1.33-1.15 2.6-2.41 3.77-3.8.43-.51.85-1.04 1.25-1.58.05.3.08.61.12.92.42 3.71 0 7.43-1.05 10.78-1.11 3.32-2.88 6.34-5.01 8.76-2.13 2.41-4.77 4.22-7.56 4.62-1.38.21-2.76.09-4.01-.29-1.23-.34-2.25-1.09-2.79-2.09a3.96 3.96 0 0 1-.32-3.14c.29-.99 1.03-1.71 1.84-2.18 1.63-.95 3.45-.91 4.64-.35.69.32 1.17.77 1.5 1.22.13.17.24.35.33.51.1.17.17.33.23.47.26.66.32 1.05.37 1.05.03 0 .06-.4-.14-1.13a4.41 4.41 0 0 0-.23-.62c1.05-1.03 2.21-2.41 3.19-4.27.71-1.35 1.27-2.97 1.57-4.73Zm-48.6 69.34c-.17.98-.21 2.13-.04 3.35-1.71-3.05-3.53-6.21-5.45-9.47-.13-.22-.26-.45-.39-.67-2.44-4.15-5.03-8.46-7.76-12.91.7.53 1.52 1 2.42 1.38.26.71.72 1.64 1.53 2.58.92 1.08 2.29 2.15 4.05 2.84 1.74.69 3.88 1 6.04.63.37-.06.74-.15 1.08-.25-.04.12-.07.25-.11.38-.31 1.08-.99 2.51-2.28 3.57-1.13.95-2.45 1.4-3.51 1.6-.15.02-.28.04-.41.07l-.23.03c.04.24.1.51.21.81.02.06.04.13.07.19.23.6.61 1.28 1.19 1.93.58.65 1.34 1.23 2.22 1.67.6.3 1.2.52 1.78.66-.16.47-.3 1-.41 1.6Zm12.52 4.51c-.48 1.62-1.33 3.29-2.36 5-1.03 1.7-2.11 3.3-3.01 4.83-.08.13-.16.26-.23.39-.07-.13-.15-.26-.23-.39-.9-1.52-1.98-3.12-3.01-4.83-1.03-1.71-1.88-3.38-2.36-5-.49-1.61-.6-3.13-.48-4.4.05-.57.14-1.09.24-1.55.89.17 1.7.19 2.36.14 1.23-.09 1.96-.37 1.96-.53-.03-.18-.78-.19-1.94-.31-.6-.07-1.33-.18-2.1-.38-.17-.04-.35-.09-.52-.15-.55-.17-1.11-.38-1.66-.67a7.81 7.81 0 0 1-3.09-2.74c1.15-.11 2.56-.55 3.77-1.56.76-.63 1.34-1.41 1.72-2.17a6.495 6.495 0 0 0 .67-2.95c1.4-.53 2.63-1.35 3.55-2.32.29-.3.55-.61.79-.93l.31-.02c0-.13-.02-.25-.04-.37.02-.03.05-.07.07-.11.02.04.04.07.07.11-.02.11-.03.24-.04.38l.32.02c.23.32.49.63.78.93.92.97 2.15 1.79 3.55 2.32 0 .23 0 .51.04.8.07.63.25 1.38.63 2.15.37.77.95 1.54 1.72 2.17 1.21 1.02 2.63 1.45 3.78 1.56a7.81 7.81 0 0 1-3.09 2.74c-.55.28-1.11.5-1.66.67-.17.06-.35.1-.52.15-.77.2-1.5.31-2.1.38-1.16.13-1.92.13-1.94.31 0 .17.72.45 1.95.54.66.04 1.47.03 2.36-.14.1.46.19.98.24 1.55.11 1.27.01 2.79-.48 4.4Zm7.2-11.3c-.13.22-.26.45-.39.67a612.81 612.81 0 0 0-5.45 9.47c.17-1.22.13-2.37-.04-3.35-.11-.6-.25-1.13-.41-1.6a8.22 8.22 0 0 0 1.78-.66c.88-.44 1.64-1.03 2.21-1.67.58-.64.96-1.32 1.19-1.93.02-.07.05-.13.07-.19.11-.3.17-.58.21-.81l-.23-.03c-.13-.02-.27-.04-.41-.07-1.06-.2-2.38-.65-3.51-1.6-1.29-1.06-1.97-2.49-2.28-3.57-.04-.13-.07-.26-.11-.38.35.1.72.19 1.08.25 2.16.37 4.29.06 6.04-.63 1.76-.69 3.14-1.76 4.05-2.84.81-.94 1.27-1.87 1.53-2.58.9-.38 1.72-.85 2.42-1.38-2.73 4.44-5.32 8.75-7.76 12.91Zm9.23-15.7c-.77.94-2 1.96-3.57 2.74 0-.04-.02-.06-.04-.07-.03-.01-.08.04-.14.15-.4.19-.83.36-1.27.51-2.28.78-4.51.92-6.11.89-.78-.01-1.42-.06-1.87-.09h-.04c-.46-.03-.72-.03-.74.05-.05.15.9.62 2.58.88 1.65.26 4.05.26 6.53-.59-.33.52-.78 1.11-1.37 1.7-.91.91-2.2 1.81-3.82 2.38-1.6.57-3.52.81-5.44.48-.57-.1-1.13-.25-1.65-.43-.03-.06-.05-.08-.09-.08-.02 0-.04 0-.05.02a8.879 8.879 0 0 1-3.02-1.92 8.323 8.323 0 0 1-1.35-1.7c-.04-.06-.07-.12-.1-.17-.18-.33-.33-.66-.46-.98-.13.32-.28.66-.46.98-.03.06-.07.11-.1.17a8.76 8.76 0 0 1-1.35 1.7c-.81.79-1.84 1.47-3.02 1.92-.02-.02-.04-.02-.05-.02-.04 0-.07.02-.09.08-.52.19-1.08.34-1.65.44-1.92.33-3.84.09-5.44-.48a10.28 10.28 0 0 1-3.82-2.38 9.998 9.998 0 0 1-1.37-1.7c2.48.85 4.88.84 6.53.59 1.68-.26 2.63-.73 2.58-.88-.03-.08-.3-.08-.78-.05-.45.02-1.1.07-1.87.09-1.6.03-3.83-.1-6.11-.89-.45-.15-.87-.32-1.27-.5-.07-.12-.11-.17-.15-.16-.02 0-.03.03-.04.07-1.58-.78-2.81-1.8-3.58-2.74-.05-.06-.1-.11-.14-.17.6.08 1.29.14 2.08.16.69.02 1.44.01 2.25-.02.79-.05 1.66-.05 2.57-.14 1.82-.16 3.84-.52 5.85-1.25 2.02-.74 3.8-1.81 5.21-3.02 1.42-1.2 2.48-2.5 3.26-3.64.25-.37.47-.72.68-1.05.02-.04.04-.08.07-.11.07-.11.14-.23.2-.34.06.11.13.23.2.34.02.04.05.08.07.11.2.33.43.69.68 1.05.79 1.14 1.85 2.44 3.26 3.64 1.42 1.2 3.2 2.28 5.21 3.02 2.02.74 4.03 1.09 5.85 1.25.91.09 1.78.09 2.57.14.81.03 1.56.05 2.25.02.79-.02 1.49-.08 2.08-.16-.05.06-.1.11-.15.17Zm1.56-2.09c-.14.03-.4.54-.92 1.26-.69.01-1.55.02-2.56-.04-.67-.04-1.4-.09-2.19-.17-.81-.1-1.65-.13-2.53-.25-1.75-.21-3.66-.59-5.55-1.28a17.75 17.75 0 0 1-4.92-2.74c-1.37-1.09-2.44-2.26-3.29-3.3-.49-.62-.91-1.17-1.26-1.65-.13-.18-.25-.34-.37-.5-.11.16-.24.32-.37.5-.35.48-.77 1.03-1.26 1.65-.85 1.04-1.92 2.21-3.29 3.3a17.314 17.314 0 0 1-4.93 2.74c-1.89.69-3.8 1.07-5.55 1.28-.88.12-1.71.15-2.53.25-.79.08-1.52.13-2.19.17-1.01.05-1.88.05-2.56.04-.52-.73-.78-1.24-.92-1.26-.38-.61-.76-1.22-1.15-1.83 1.84.43 3.8.51 5.75.33 2.74-.26 5.51-1.02 8.16-2.24 2.65-1.23 5.21-2.93 7.34-5.2 1.05-1.14 2-2.43 2.72-3.87.3-.59.55-1.2.77-1.84.21.64.47 1.25.76 1.84.36.71.78 1.4 1.23 2.05.47.64.96 1.26 1.49 1.82 2.13 2.27 4.69 3.97 7.34 5.2 2.65 1.22 5.42 1.99 8.16 2.24 1.95.18 3.91.1 5.75-.33-.39.61-.77 1.23-1.14 1.83Zm-124.79-115.56c-1.06-.58-2.1-1.18-3.1-1.81h-2.96c1.89 1.33 3.92 2.56 6.06 3.71v-1.9Zm0 21.22c-2.3-2.85-4.58-5.65-6.82-8.37-4.16-5.05-8.25-9.87-12.2-14.45 1.25 1.29 2.43 2.41 3.51 3.36.23.2.45.4.67.58 0 .01.01.01.02.02 4.01 3.75 8.88 7.45 14.72 10.53.03.02.07.03.1.05v-1.4c-5.54-2.92-10.23-6.4-14.12-9.94-.91-.82-1.77-1.65-2.6-2.47-.31-.32-.62-.63-.92-.95h-1.91c-.12 0-.22-.01-.34-.02-.16.09-.33.17-.5.24 4.11 4.79 8.35 9.83 12.7 15.14 2.52 3.08 5.09 6.26 7.68 9.51v-1.84Z" class="cls-2"/><path d="M1008.43 172.6c-1.25 1.47-2.49 2.93-3.71 4.36.28-.22.57-.44.88-.66 1.06-.76 2.26-1.52 3.56-2.26-.24-.48-.49-.96-.73-1.44Zm62.05-68.91c20-28.51 36.55-55.05 48.08-75.62 1.55-2.75 3-5.39 4.36-7.91.15-.27.3-.54.44-.81.14.27.29.54.44.81 1.36 2.52 2.82 5.16 4.37 7.91 11.53 20.56 28.09 47.1 48.09 75.62h8.98c-20.63-29.32-37.61-56.73-49.26-77.89-2.88-5.21-5.43-10.04-7.66-14.42-.13-.25-.25-.49-.37-.73-1.74-3.42-3.26-6.55-4.58-9.37-1.32 2.82-2.85 5.95-4.58 9.37-.12.24-.25.49-.37.73-2.23 4.38-4.78 9.22-7.66 14.42-11.65 21.16-28.63 48.57-49.26 77.89h8.99Z" class="cls-5"/><path d="M1195.63 329.74c-.04.8-.13 1.6-.28 2.39-.47 2.64-1.36 5.12-2.59 7.34-1.23 2.2-2.82 4.19-4.92 5.39-1.03.59-2.19.96-3.33 1.01-1.14.05-2.24-.15-3.22-.55-.99-.41-1.84-1.09-2.39-1.92-.55-.83-.82-1.79-.79-2.69.02-.9.33-1.75.84-2.39.51-.63 1.2-1.03 1.88-1.21a3.5 3.5 0 0 1 1.93.02c.57.17 1.04.46 1.41.78.73.64 1.09 1.31 1.33 1.75.08.17.15.31.2.41-.05-.11-.12-.25-.21-.41-.24-.44-.63-1.09-1.37-1.69-.37-.3-.84-.56-1.4-.7a3.25 3.25 0 0 0-1.82.07c-.62.2-1.23.6-1.67 1.19-.43.59-.67 1.37-.65 2.17.01.81.29 1.65.81 2.35.52.71 1.28 1.27 2.17 1.58.89.33 1.89.48 2.89.39 1-.09 2-.44 2.91-1 1.82-1.13 3.28-3 4.41-5.1 1.12-2.12 1.95-4.5 2.41-7.01.13-.73.21-1.46.26-2.18h-6.3c-.03.3-.06.6-.1.89-.12.75-.28 1.46-.5 2.1-.49 1.54-1.19 2.75-1.84 3.66l-.09.12c.03.05.06.1.08.15.39.71.49 1.14.46 1.15-.05.03-.22-.37-.66-1.02-.01-.02-.03-.04-.04-.06a4.22 4.22 0 0 0-.29-.37c-.17-.21-.38-.43-.63-.65-.04-.03-.07-.06-.11-.09-.29-.23-.64-.45-1.05-.62-.17-.07-.35-.12-.54-.17-1.4-.36-3.31.23-4.69 1.77-.7.76-1.26 1.74-1.54 2.87-.28 1.13-.25 2.4.18 3.6.09.25.19.5.31.73.19.38.43.74.7 1.09.39.49.85.93 1.39 1.31 1.14.81 2.58 1.28 4.09 1.37.54.03 1.09.01 1.64-.05.57-.07 1.15-.19 1.72-.36.42-.12.84-.27 1.25-.45 1.51-.64 2.94-1.61 4.21-2.8 1.3-1.19 2.4-2.59 3.23-4.21.83-1.63 1.39-3.43 1.69-5.32.1-.66.18-1.32.23-1.99.05-.7.07-1.4.06-2.11 0-.18-.02-.37-.02-.55h-1.65Z" class="cls-7"/><path d="M1091.76 103.69c-.31-.79-.49-1.66-.5-2.55-.02-1.05.17-2.11.52-3.14.34-1.03.82-2.02 1.41-2.98s1.32-1.88 2.19-2.68c1.73-1.63 4.09-2.75 6.65-3.01 2.55-.27 5.24.26 7.66 1.49 2.43 1.24 4.5 3.13 6.32 5.26 1.81 2.15 3.38 4.57 4.65 7.22.06.13.11.26.17.39h5.05c.06-.13.11-.26.17-.39 1.27-2.66 2.84-5.07 4.65-7.22 1.82-2.13 3.89-4.02 6.32-5.26 2.42-1.23 5.11-1.76 7.66-1.49 2.56.26 4.92 1.38 6.65 3.01.87.8 1.6 1.72 2.19 2.68.58.96 1.07 1.95 1.41 2.98.34 1.03.54 2.09.52 3.14-.01.89-.19 1.75-.5 2.55h19.84c-19.78-28.31-36.08-54.69-47.37-75.2-1.08-1.96-2.12-3.86-3.1-5.7l-.36-.66c-.2-.39-.41-.76-.61-1.14-.2.38-.4.76-.61 1.14-.12.22-.23.43-.35.66-.99 1.84-2.02 3.74-3.1 5.7-11.29 20.52-27.59 46.89-47.37 75.2h19.83Zm.79-25.6c1.07-1.81 2.77-3.43 4.83-4.63a16.49 16.49 0 0 1 5.35-1.99c.17-.29.36-.58.58-.89.45-.61 1.03-1.25 1.78-1.78.76-.54 1.69-.91 2.67-1.16 1.53-.4 3.3-.36 5.01.11-.3-.46-.56-.98-.77-1.54-.12-.32-.2-.62-.3-.95-.1-.34-.16-.7-.21-1.05-.16-1.41 0-2.69-.03-3.77-.01-1.08-.31-1.91-.87-2.41-.44-.4-.93-.63-1.33-.81-.11-.04-.22-.08-.31-.13-.32-.13-.54-.22-.64-.3.03-.03.06-.06.09-.08.03-.02.06-.05.09-.08.47-.38 1.11-.71 1.87-.88a6.99 6.99 0 0 1 2.63-.08c.29.05.56.1.84.17-.04-.1-.08-.22-.13-.33-.31-.87-.55-2.03-.51-3.41.04-1.83.62-3.94 1.61-6.08.97-2.15 2.32-4.34 3.71-6.61 1.39-2.27 2.68-4.44 3.5-6.53.38-.94.63-1.87.83-2.78l.06-.28c.2-.93.34-1.81.45-2.62.11.81.25 1.69.45 2.62l.06.28c.2.91.45 1.84.82 2.78.82 2.09 2.11 4.26 3.5 6.53 1.39 2.28 2.73 4.47 3.71 6.61.99 2.14 1.57 4.25 1.61 6.08.05 1.56-.27 2.84-.63 3.74.27-.07.55-.13.84-.17.91-.14 1.82-.12 2.63.08.75.17 1.4.51 1.87.88.04.02.07.05.1.08.03.02.06.05.09.08-.09.08-.31.17-.64.3-.09.04-.2.08-.31.13-.4.18-.9.41-1.34.81-.57.5-.86 1.32-.87 2.41-.04 1.08.13 2.35-.03 3.77-.04.35-.11.7-.21 1.05-.1.33-.18.63-.3.95-.2.55-.46 1.08-.76 1.54 1.71-.46 3.47-.51 5.01-.11.98.25 1.91.61 2.67 1.16.75.53 1.34 1.16 1.78 1.78.22.31.41.6.58.89 1.76.33 3.61.97 5.35 1.99 2.06 1.2 3.76 2.82 4.83 4.63.53.91.91 1.82 1.12 2.76.18.93.22 1.77.21 2.54 0 .39-.02.75-.05 1.1-.02.23-.04.46-.07.67-.22-.15-.45-.29-.69-.45a22.37 22.37 0 0 0-2.85-1.51c-1.9-.84-4.36-1.43-7.1-1.41-2.74.02-5.77.65-8.69 1.91-2.94 1.25-5.45 3-7.45 4.93-2 1.91-3.52 3.92-4.49 5.77-.11.2-.21.41-.31.61-.17.34-.31.67-.44.99-.13-.32-.27-.65-.44-.99-.09-.2-.2-.4-.31-.61-.97-1.85-2.49-3.86-4.49-5.77-1.99-1.93-4.5-3.68-7.45-4.93-2.93-1.26-5.95-1.88-8.69-1.91-2.75-.02-5.2.56-7.1 1.41a23.074 23.074 0 0 0-3.54 1.96c-.03-.22-.05-.44-.07-.67-.03-.34-.05-.71-.05-1.1 0-.78.03-1.62.21-2.54.21-.94.59-1.85 1.12-2.76Zm101.88 251.65c-.04.72-.13 1.45-.26 2.18-.45 2.5-1.29 4.89-2.41 7.01-1.13 2.1-2.58 3.97-4.41 5.1-.91.56-1.91.91-2.91 1-1 .09-2-.06-2.89-.39-.89-.32-1.65-.88-2.17-1.58-.52-.7-.79-1.54-.81-2.35-.02-.81.22-1.58.65-2.17.43-.59 1.05-.99 1.67-1.19.62-.2 1.26-.2 1.82-.07.55.14 1.02.4 1.4.7.74.6 1.13 1.25 1.37 1.69.09.16.16.3.21.41-.05-.11-.11-.25-.2-.41-.24-.45-.6-1.12-1.33-1.75-.37-.31-.84-.61-1.41-.78a3.5 3.5 0 0 0-1.93-.02c-.68.18-1.36.58-1.88 1.21-.51.64-.82 1.49-.84 2.39-.03.9.23 1.86.79 2.69.55.83 1.4 1.51 2.39 1.92.98.4 2.08.61 3.22.55 1.14-.05 2.3-.42 3.33-1.01 2.09-1.2 3.69-3.2 4.92-5.39 1.22-2.22 2.11-4.69 2.59-7.34.14-.8.24-1.59.28-2.39h-1.2Z" class="cls-2"/><path d="M1175.45 329.74c-.62 1.31-1.32 2.57-2.1 3.75.15.72.26 1.45.34 2.19.44 3.9 0 7.76-1.13 11.28-.81 2.41-1.94 4.63-3.31 6.6l.72.49c2.14-3.12 4.33-6.28 6.57-9.46-.24-.4-.42-.82-.56-1.25a7.004 7.004 0 0 1-.12-4.07c.34-1.25 1-2.32 1.79-3.14.79-.82 1.72-1.39 2.65-1.69.93-.3 1.87-.3 2.65-.08.25.07.47.15.68.26.86-1.19 1.73-2.38 2.6-3.58l.96-1.32h-11.74Z" class="cls-2"/><path d="M1148.9 329.74c-.21.45-.45.89-.74 1.3-.86 1.2-2.05 2.17-3.4 2.88-.62.32-1.27.6-1.94.84-.44 1.16-.92 2.31-1.43 3.44.7-.11 1.39-.27 2.05-.49 1.44-.46 2.78-1.13 4-1.91 1.23-.79 2.34-1.67 3.23-2.73.87-1 1.52-2.14 1.95-3.32h-3.73Zm-4.45 0a61.92 61.92 0 0 1-1.13 3.67c.32-.13.64-.28.95-.43 1.24-.63 2.32-1.47 3.11-2.51.18-.23.33-.48.48-.73h-3.4Zm25.65 0c-.89 1.26-1.87 2.41-2.9 3.44a32.47 32.47 0 0 1-5.82 4.57c-1.98 1.22-3.92 2.13-5.72 2.91-3.6 1.54-6.59 2.56-8.63 3.32-1.34.49-2.29.85-2.77 1.04l2.75-1.13c2.01-.83 4.95-1.99 8.46-3.67 1.75-.85 3.64-1.83 5.53-3.1 1.87-1.26 3.78-2.79 5.52-4.63.81-.85 1.57-1.78 2.29-2.77h-4.52c-.1.12-.2.25-.31.38-.31.35-.62.69-.94 1.03-.07.06-.13.13-.19.2-2.27 2.3-4.92 4.26-7.78 5.98a56.96 56.96 0 0 1-4.43 2.39c-1.52.71-3.03 1.43-4.54 2.2-2.23 1.14-4.44 2.36-6.6 3.72l.89 1.44c.07-.05.14-.1.2-.14-.41.29-1.19.87-2.24 1.73-1.6 1.33-3.89 3.32-6.28 6.17-1.17 1.43-2.38 3.07-3.32 5.01-.48.96-.87 2.01-1.12 3.1-.23 1.1-.38 2.3-.46 3.5-.15 2.4.11 4.96 1.11 7.34.99 2.38 2.73 4.52 4.91 6.2 2.19 1.69 4.69 2.86 7.22 3.42 2.53.58 5.11.51 7.35-.25 1.08-.37 2.07-1.01 2.91-1.75.83-.75 1.52-1.62 1.94-2.56.42-.94.54-1.96.25-2.86-.29-.9-.95-1.61-1.68-2.13-.72-.54-1.55-.84-2.35-.87-.81-.03-1.57.17-2.21.51-1.29.66-2.12 1.73-2.5 2.68-.39.96-.3 1.82-.09 2.32.05.13.1.23.15.32a2.202 2.202 0 0 1-.27-.64l-1.56.07c.13.63.24.95.21.96-.03 0-.36-.64-.63-1.97-.04-.2-.07-.41-.09-.64-.82-.12-1.81-.4-2.88-.95-.55-.29-1.12-.66-1.67-1.13-.55-.49-1.02-1.09-1.51-1.73-.96-1.28-1.91-2.89-2.28-4.87-.18-.98-.19-2.05.03-3.12.21-1.07.65-2.13 1.24-3.13 1.18-2.01 2.95-3.78 4.96-5.41 2.02-1.63 4.3-3.13 6.75-4.6 2.45-1.47 5.07-2.91 7.8-4.4 2.72-1.5 5.57-3.03 8.37-4.81.57-.36 1.14-.74 1.7-1.13.37-.25.73-.51 1.09-.78.44-.33.87-.67 1.29-1.03 1.28-1.11 2.51-2.35 3.63-3.69a28.6 28.6 0 0 0 1.79-2.39c.32-.46.62-.93.9-1.4.44-.74.85-1.5 1.23-2.27h-4.14Z" class="cls-6"/><path d="M1168.79 329.74c-.71.99-1.48 1.92-2.29 2.77-1.75 1.84-3.65 3.37-5.52 4.63-1.89 1.26-3.78 2.25-5.53 3.1-3.5 1.68-6.45 2.83-8.46 3.67l-2.75 1.13c.49-.19 1.43-.55 2.77-1.04 2.04-.76 5.03-1.78 8.63-3.32 1.79-.78 3.74-1.69 5.72-2.91 1.97-1.22 3.96-2.71 5.82-4.57 1.03-1.02 2.01-2.18 2.9-3.44h-1.31Z" class="cls-2"/><path d="M1130.79 103.69c.69-1.28 1.49-2.45 2.37-3.44 1.15-1.3 2.45-2.3 3.73-3.02 1.28-.74 2.53-1.22 3.65-1.52 1.12-.3 2.13-.43 2.93-.47.82-.05 1.44-.01 1.88.02.05 0 .1 0 .14.01h-.14c-.43-.02-1.06-.04-1.87.03s-1.79.24-2.89.58c-1.09.34-2.3.87-3.52 1.63-1.22.76-2.44 1.77-3.5 3.08-.76.9-1.43 1.95-2.03 3.09h8.25c-.06-.21-.12-.42-.15-.61-.2-1.25.02-1.9.04-1.88l1.02-.14c-.04-.23-.05-.45-.04-.64.01-.69.22-1.2.37-1.52.05-.11.11-.21.16-.28-.04.08-.09.18-.14.29-.15.32-.32.84-.29 1.51.02.66.26 1.47.8 2.25.24.35.55.7.91 1.03h7.72c.2-.26.36-.55.49-.86.29-.66.41-1.42.45-2.21.05-.78-.01-1.58-.22-2.35-.4-1.54-1.47-2.89-2.95-3.74-1.47-.86-3.19-1.21-4.84-1.21s-3.25.35-4.69.92c-1.43.56-2.67 1.39-3.76 2.26a22.95 22.95 0 0 0-2.83 2.69 26.918 26.918 0 0 0-3.23 4.5h2.19Zm-2.32 0c.37-.75.85-1.68 1.51-2.73l-.91-.55c-.66 1.05-1.27 2.15-1.81 3.29h1.21Z" class="cls-1"/><path d="M1092.66 103.69c-.33-.79-.51-1.65-.51-2.55 0-.93.18-1.9.51-2.84.67-1.88 1.8-3.76 3.41-5.22a10.43 10.43 0 0 1 6.07-2.67c2.32-.22 4.8.28 7.02 1.43 2.22 1.15 4.19 2.96 5.92 5.02.92 1.1 1.77 2.28 2.55 3.54.66 1.05 1.27 2.15 1.81 3.29h1.38c-.06-.13-.11-.26-.17-.39a33.802 33.802 0 0 0-4.65-7.22c-1.82-2.13-3.89-4.02-6.32-5.26-2.42-1.23-5.11-1.76-7.66-1.49-2.56.26-4.92 1.38-6.65 3.01-.87.8-1.59 1.72-2.19 2.68-.58.96-1.07 1.95-1.41 2.98-.34 1.03-.54 2.09-.52 3.14.01.89.19 1.75.5 2.55h.9Zm34.6 0c.55-1.14 1.15-2.24 1.81-3.29.78-1.26 1.64-2.44 2.55-3.54 1.74-2.06 3.7-3.87 5.93-5.02 2.23-1.14 4.7-1.65 7.02-1.43 2.33.21 4.48 1.2 6.07 2.67 1.61 1.46 2.73 3.34 3.41 5.22.33.94.52 1.9.51 2.84 0 .9-.18 1.77-.52 2.55h.9c.31-.79.49-1.66.5-2.55.02-1.05-.18-2.11-.52-3.14-.34-1.03-.82-2.02-1.41-2.98-.6-.96-1.32-1.88-2.19-2.68-1.73-1.63-4.09-2.75-6.65-3.01-2.55-.27-5.24.26-7.66 1.49-2.43 1.24-4.5 3.13-6.32 5.26a34.053 34.053 0 0 0-4.65 7.22c-.06.13-.11.26-.17.39h1.38Z" class="cls-2"/><path d="M1172.5 335.82c.42 3.71 0 7.43-1.05 10.78-1.11 3.32-2.88 6.34-5.01 8.76-2.13 2.41-4.77 4.22-7.56 4.62-1.38.21-2.76.09-4.01-.29-1.23-.34-2.25-1.09-2.79-2.09a3.96 3.96 0 0 1-.32-3.14c.29-.99 1.03-1.71 1.84-2.18 1.63-.95 3.45-.91 4.64-.35.69.32 1.17.77 1.5 1.22.13.17.24.35.33.51.1.17.17.33.23.47.26.66.32 1.05.37 1.05.03 0 .06-.4-.14-1.13a4.41 4.41 0 0 0-.23-.62c1.05-1.03 2.21-2.41 3.19-4.27.71-1.35 1.27-2.97 1.57-4.73.15-.83.25-1.71.3-2.61.69-.48 1.36-.99 2.01-1.55 1.33-1.15 2.6-2.41 3.77-3.8.43-.51.85-1.04 1.25-1.58.05.3.08.61.12.92Zm-1.68 7.85c.28-1.88.28-3.41.26-4.46-.02-.79-.05-1.31-.06-1.52 0 .21.02.74-.02 1.52-.06 1.04-.21 2.56-.65 4.36-.22.9-.52 1.87-.92 2.88-.41.99-.95 2.03-1.56 3.08-1.24 2.09-2.82 4.29-4.89 6.11-1.04.9-2.16 1.64-3.33 2.07-1.17.43-2.4.49-3.51.22-1.09-.26-2.09-.88-2.47-1.74-.19-.43-.19-.89-.01-1.28.18-.4.5-.75.85-1 .71-.53 1.55-.71 2.26-.58.7.12 1.23.53 1.58.9.35.39.54.75.67 1 .03.06.05.11.08.16-.02-.05-.04-.11-.07-.17a4.59 4.59 0 0 0-.61-1.05c-.32-.41-.83-.88-1.6-1.08-.75-.21-1.71-.09-2.56.43-.42.26-.84.62-1.12 1.13-.3.51-.35 1.21-.13 1.81.45 1.22 1.63 2.03 2.9 2.41 1.28.39 2.76.39 4.14-.08 1.38-.46 2.63-1.27 3.75-2.24 2.23-1.97 3.79-4.32 4.95-6.56.57-1.12 1.05-2.22 1.4-3.3.34-1.07.55-2.1.7-3.03Z" class="cls-1"/><path d="M1171.08 339.22c.02 1.05.01 2.58-.26 4.46-.15.93-.36 1.96-.7 3.03-.35 1.08-.82 2.17-1.4 3.3-1.16 2.24-2.71 4.59-4.95 6.56-1.12.97-2.37 1.78-3.75 2.24a6.82 6.82 0 0 1-4.14.08c-1.26-.38-2.45-1.19-2.9-2.41-.22-.6-.16-1.3.13-1.81.29-.51.7-.87 1.12-1.13.85-.52 1.81-.63 2.56-.43.77.2 1.28.67 1.6 1.08.33.42.5.79.61 1.05.03.06.05.12.07.17-.03-.05-.05-.1-.08-.16-.13-.25-.32-.62-.67-1-.34-.38-.87-.78-1.58-.9-.7-.13-1.55.06-2.26.58-.35.26-.67.6-.85 1-.18.4-.18.85.01 1.28.39.86 1.38 1.48 2.47 1.74 1.11.27 2.34.21 3.51-.22s2.3-1.18 3.33-2.07c2.07-1.82 3.65-4.03 4.89-6.11.61-1.05 1.15-2.09 1.56-3.08.4-1.01.7-1.97.92-2.88.44-1.8.59-3.31.65-4.36.04-.78.03-1.31.02-1.52.01.21.04.73.06 1.52Z" class="cls-2"/><path d="m1169.25 353.57.72.49c-4.82 7.02-9.42 13.9-13.75 20.58-.33-.89-.83-1.67-1.44-2.32-.7-.74-1.53-1.31-2.38-1.71-3.43-1.6-7.16-.94-9.06.97-.96.95-1.4 2.12-1.54 3.11-.08.6-.08 1.14-.04 1.63-.77-.16-1.7-.46-2.68-1.01-.52-.29-1.06-.66-1.56-1.13-.5-.46-.94-1.07-1.41-1.7-.91-1.27-1.78-2.83-2.09-4.69-.14-.92-.14-1.91.08-2.9.21-.99.63-1.98 1.2-2.91 1.14-1.89 2.87-3.58 4.86-5.15 1.99-1.58 4.27-3.04 6.71-4.48 2.44-1.43 5.07-2.84 7.81-4.31 2.74-1.47 5.61-2.99 8.47-4.78.37-.23.74-.46 1.1-.7-.18 2.36-.68 4.48-1.54 6.2a17.7 17.7 0 0 1-2.74 4.09.36.36 0 0 0-.07-.1c-.32-.46-.81-.93-1.47-1.27-1.3-.69-3.3-.82-5.18.18-.46.25-.91.58-1.31 1-.4.42-.72.95-.93 1.53-.41 1.16-.34 2.56.3 3.79.62 1.23 1.88 2.17 3.27 2.58 1.35.43 2.88.6 4.42.39 1.54-.2 3.06-.8 4.45-1.65 1.39-.85 2.66-1.96 3.8-3.22.71-.79 1.37-1.64 1.99-2.53Zm-15.77-23.83s-.02.09-.04.14c-.45 1.34-1.17 2.62-2.12 3.74-.95 1.13-2.13 2.09-3.39 2.92-1.28.83-2.68 1.55-4.2 2.05-.9.3-1.84.5-2.81.62a65.292 65.292 0 0 1-3.46 6.29c2.62-1.75 5.33-3.29 8.07-4.68 1.52-.78 3.06-1.51 4.57-2.21a52.6 52.6 0 0 0 4.33-2.32c2.79-1.67 5.38-3.57 7.57-5.78.21-.21.42-.43.62-.65-.01-.05-.03-.09-.05-.14h-9.1Z" class="cls-2"/><path d="M1155.67 375.48c.15.58.2 1.18.17 1.8-.04 1.33-.43 2.72-1.05 4.02-.84 1.77-2.34 3.28-4.25 4.22-.22.11-.45.21-.69.31-.33.14-.67.26-1.02.36-1.98.61-4.18.73-6.39.51-1.25-.13-2.51-.37-3.76-.72l.45-1.71c.34.09.68.17 1.02.24 2.71.57 5.5.44 7.92-.45 1.23-.47 2.28-1.2 3.17-2.04.87-.84 1.59-1.82 2.02-2.9.44-1.07.54-2.29.14-3.33-.39-1.04-1.17-1.8-1.97-2.32-.8-.54-1.73-.84-2.61-.83-.88 0-1.69.27-2.34.64-1.32.76-2.11 1.88-2.47 2.86a3.433 3.433 0 0 0-.14 2.03l-1.56.07c-.02-.08-.03-.16-.05-.25-.04-.23-.09-.49-.13-.79-.02-.17-.05-.57-.05-.57l-.02-.24s0-1.04.11-1.63c.17-.94.61-2 1.51-2.83 1.76-1.7 5.28-2.25 8.44-.71 1.56.76 2.99 2.16 3.51 4.04.03.07.04.15.05.23Z" class="cls-6"/><path d="M1155.29 80.86c.18.93.22 1.77.21 2.54 0 .39-.02.75-.05 1.1-.02.23-.04.46-.07.67-.22-.15-.45-.29-.69-.45a22.37 22.37 0 0 0-2.85-1.51c-1.9-.84-4.36-1.43-7.1-1.41-2.74.02-5.77.65-8.69 1.91-2.94 1.25-5.45 3-7.45 4.93-2 1.91-3.52 3.92-4.49 5.77-.11.2-.21.41-.31.61-.17.34-.31.67-.44.99-.13-.32-.27-.65-.44-.99-.09-.2-.2-.4-.31-.61-.97-1.85-2.49-3.86-4.49-5.77-1.99-1.93-4.5-3.68-7.45-4.93-2.93-1.26-5.95-1.88-8.69-1.91-2.75-.02-5.2.56-7.1 1.41a23.074 23.074 0 0 0-3.54 1.96c-.03-.22-.05-.44-.07-.67-.03-.34-.05-.71-.05-1.1 0-.78.03-1.62.21-2.54.21-.94.59-1.85 1.12-2.76 1.07-1.81 2.77-3.43 4.83-4.63a16.49 16.49 0 0 1 5.35-1.99c.17-.29.36-.58.58-.89.45-.61 1.03-1.25 1.78-1.78.76-.54 1.69-.91 2.67-1.16 1.53-.4 3.3-.36 5.01.11-.3-.46-.56-.98-.77-1.54-.12-.32-.2-.62-.3-.95-.1-.34-.16-.7-.21-1.05-.16-1.41 0-2.69-.03-3.77-.01-1.08-.31-1.91-.87-2.41-.44-.4-.93-.63-1.33-.81-.11-.04-.22-.08-.31-.13-.32-.13-.54-.22-.64-.3.03-.03.06-.06.09-.08.03-.02.06-.05.09-.08.47-.38 1.11-.71 1.87-.88a6.99 6.99 0 0 1 2.63-.08c.29.05.56.1.84.17-.04-.1-.08-.22-.13-.33l.57-.08c.05.21.1.41.16.59 1.19.39 2.15.99 2.8 1.57.91.81 1.17 1.58 1.02 1.65-.14.08-.6-.42-1.52-.97-.13-.07-.25-.15-.4-.23-.41-.23-.91-.45-1.46-.65-.08-.04-.17-.07-.26-.1-.55-.19-1.16-.35-1.79-.44-.94-.16-1.82-.12-2.56.04.28.11.57.25.88.46.4.28.79.72 1.03 1.26.25.54.36 1.14.41 1.75.1 1.21-.03 2.46.12 3.68.04.3.09.6.17.87.08.29.16.6.26.87.19.55.42 1.06.69 1.5.27.44.58.83.92 1.17 1.93.9 3.53 2.19 4.79 3.51 1.38 1.43 2.38 2.91 3.08 4.23.29.55.54 1.07.73 1.55s.07-.01.07-.01c.19-.47.43-.99.72-1.53.7-1.31 1.7-2.8 3.08-4.23 1.26-1.32 2.86-2.61 4.79-3.51.33-.34.64-.72.91-1.17.27-.45.51-.95.69-1.5.1-.27.17-.58.26-.87.08-.28.12-.57.17-.87.14-1.22.01-2.47.12-3.68.05-.61.16-1.21.41-1.75.25-.53.63-.97 1.04-1.26.31-.21.6-.35.88-.46-.75-.16-1.63-.19-2.57-.04-.64.1-1.24.26-1.79.44-.09.03-.17.06-.26.1-.73.26-1.36.58-1.85.88-.85.5-1.31.98-1.49.98-.01 0-.03 0-.04-.01-.15-.07.1-.84 1.02-1.65.65-.58 1.61-1.18 2.8-1.57.02-.09.05-.19.08-.28l.52.1c.27-.07.55-.13.84-.17.91-.14 1.82-.12 2.63.08.75.17 1.4.51 1.87.88.04.02.07.05.1.08.03.02.06.05.09.08-.09.08-.31.17-.64.3-.09.04-.2.08-.31.13-.4.18-.9.41-1.34.81-.57.5-.86 1.32-.87 2.41-.04 1.08.13 2.35-.03 3.77-.04.35-.11.7-.21 1.05-.1.33-.18.63-.3.95-.2.55-.46 1.08-.76 1.54 1.71-.46 3.47-.51 5.01-.11.98.25 1.91.61 2.67 1.16.75.53 1.34 1.16 1.78 1.78.22.31.41.6.58.89 1.76.33 3.61.97 5.35 1.99 2.06 1.2 3.76 2.82 4.83 4.63.53.91.91 1.82 1.12 2.76Zm-.62 3.07c0-.16-.01-.33-.02-.51-.05-.73-.14-1.53-.34-2.34-.21-.78-.59-1.62-1.1-2.41-1-1.6-2.58-3.06-4.49-4.17a16.77 16.77 0 0 0-4.1-1.71c-.28-.08-.56-.15-.84-.2-.31-.07-.61-.13-.91-.17-1.9-.31-3.65-.24-5.07.05-1.43.28-2.52.76-3.25 1.14-.73.38-1.12.65-1.18.57-.05-.05.24-.44.93-.97.69-.52 1.79-1.16 3.3-1.58 1.46-.4 3.3-.58 5.27-.34-.05-.06-.1-.13-.15-.19-.45-.53-1-1.05-1.67-1.47-.66-.42-1.47-.71-2.36-.91-1.77-.39-3.83-.18-5.77.66-.51.22-1.01.47-1.48.74-1.32.76-2.48 1.7-3.47 2.66a22.184 22.184 0 0 0-3.14 3.88c-.49.78-.87 1.49-1.17 2.09-.12.25-.23.48-.32.69-.1-.21-.2-.44-.32-.69-.3-.61-.67-1.32-1.17-2.09-.76-1.2-1.79-2.56-3.14-3.88-.99-.96-2.14-1.9-3.47-2.66-.48-.27-.97-.52-1.48-.74-1.94-.84-4-1.05-5.77-.66-.89.2-1.71.49-2.37.91-.67.42-1.21.95-1.67 1.47-.05.06-.1.13-.15.19 1.98-.24 3.81-.06 5.27.34 1.51.42 2.62 1.05 3.3 1.58.69.53.98.92.93.97 0 0-.02.01-.03.01-.12 0-.5-.25-1.15-.58-.73-.38-1.82-.87-3.25-1.14-1.42-.29-3.18-.36-5.07-.05-.3.05-.6.1-.91.17-.28.05-.55.13-.84.2-1.37.37-2.76.93-4.1 1.71-1.91 1.11-3.48 2.58-4.48 4.17-.5.79-.89 1.63-1.09 2.41-.2.8-.29 1.61-.34 2.34l-.03.51c.7-.49 1.52-1.01 2.48-1.48 1.95-.99 4.54-1.71 7.46-1.75 2.91-.04 6.1.59 9.17 1.91 3.08 1.3 5.73 3.2 7.74 5.24 2 1.99 3.49 4.09 4.41 6.04h.03v.07s.01 0 .01.01c0-.02 0-.04.01-.06V94v-.02c0-.02.02-.03.03-.05v-.04h.02c.92-1.95 2.41-4.06 4.41-6.04 2.02-2.05 4.66-3.94 7.74-5.24 3.07-1.32 6.26-1.94 9.17-1.91 2.91.04 5.5.76 7.46 1.75.96.47 1.78.99 2.48 1.48Z" class="cls-2"/><path d="M1154.65 83.42c.01.17.02.34.02.51-.7-.49-1.51-1.01-2.48-1.48-1.96-.99-4.54-1.71-7.46-1.75-2.91-.04-6.1.59-9.17 1.91a24.32 24.32 0 0 0-7.74 5.24c-2 1.99-3.49 4.09-4.41 6.04l.07-.54v-.07c.03-.13.07-.27.12-.42.23-.74.67-1.76 1.39-2.93 1.44-2.32 3.95-5.2 7.25-7.67 1.65-1.24 3.34-2.25 4.96-2.99 1.63-.74 3.18-1.22 4.53-1.45 1.34-.24 2.47-.25 3.23-.2.65.04 1.05.11 1.16.13-.1-.02-.5-.11-1.15-.21-.77-.12-1.9-.25-3.3-.18s-3.08.37-4.84 1.02c-1.76.64-3.6 1.63-5.32 2.93a22.941 22.941 0 0 0-4.33 4.23 21.022 21.022 0 0 0-2.6 4.18c-.54 1.17-.85 2.18-1.02 2.93l-.21-.05c.03-.46.1-1 .22-1.61 0-.02.01-.05.02-.08.4-2.03 1.32-4.73 2.71-7.52 1.39-2.79 3-5.14 4.39-6.68 1.2-1.34 2.22-2.03 2.46-2.18l.22-.35c.06.07.45-.19 1.18-.57.73-.38 1.82-.87 3.25-1.14 1.42-.29 3.18-.36 5.07-.05.3.05.6.1.91.17.28.05.55.13.84.2 1.37.37 2.76.93 4.1 1.71 1.91 1.11 3.48 2.58 4.49 4.17.51.79.89 1.63 1.1 2.41.2.8.29 1.61.34 2.34Z" class="cls-7"/><path d="M1131.44 98.87c.74-.97 1.63-1.99 2.71-2.97 1.07-.97 2.34-1.94 3.86-2.62 1.52-.69 3.25-1.15 5.08-1.19 1.83-.04 3.79.31 5.53 1.32.86.5 1.64 1.17 2.23 1.95.61.78 1.03 1.69 1.25 2.61.23.93.26 1.86.18 2.74-.08.87-.27 1.76-.66 2.57-.07.15-.17.28-.25.42h2.68c.33-.79.52-1.65.52-2.55 0-.93-.18-1.9-.51-2.84-.67-1.88-1.8-3.76-3.41-5.22a10.43 10.43 0 0 0-6.07-2.67c-2.32-.22-4.8.28-7.02 1.43-2.22 1.15-4.19 2.96-5.93 5.02-.91 1.1-1.77 2.28-2.55 3.54s.91.56.91.56c.42-.66.89-1.37 1.45-2.09Z" class="cls-1"/><path d="M1153.39 375.77c.4 1.04.3 2.26-.14 3.33-.43 1.08-1.15 2.06-2.02 2.9-.88.84-1.93 1.57-3.17 2.04-2.42.89-5.21 1.02-7.92.45-.34-.07-.68-.15-1.02-.24-2.36-.64-4.65-1.77-6.69-3.34-2.32-1.79-4.2-4.12-5.23-6.72-1.05-2.61-1.24-5.35-1.02-7.85.12-1.26.3-2.44.59-3.62.31-1.17.77-2.25 1.3-3.23 1.07-1.98 2.36-3.59 3.62-4.99 2.54-2.77 4.93-4.65 6.58-5.92a64.882 64.882 0 0 1 2.29-1.67c-.41.29-1.19.87-2.24 1.73-1.6 1.33-3.89 3.32-6.28 6.16-1.17 1.43-2.38 3.07-3.32 5.01-.48.96-.87 2.01-1.12 3.1-.23 1.1-.38 2.3-.46 3.5-.15 2.4.11 4.96 1.11 7.34.99 2.38 2.73 4.52 4.91 6.2 2.19 1.69 4.69 2.86 7.22 3.42 2.53.58 5.11.51 7.35-.25 1.08-.37 2.07-1.01 2.91-1.75.83-.75 1.52-1.62 1.94-2.56.42-.94.54-1.96.25-2.86-.29-.9-.95-1.61-1.68-2.13-.72-.54-1.55-.84-2.35-.87-.81-.03-1.57.17-2.21.51-1.29.66-2.12 1.73-2.5 2.68-.39.96-.3 1.82-.09 2.32.05.13.1.23.15.32-.05-.08-.11-.19-.16-.31-.04-.1-.08-.21-.12-.33a3.91 3.91 0 0 1-.07-.39c-.05-.46-.02-1.03.21-1.64.35-.99 1.14-2.11 2.47-2.86.66-.38 1.46-.64 2.34-.64.87 0 1.81.29 2.61.83.8.52 1.58 1.27 1.97 2.32Zm-24.79-272.08c.67-1.17 1.69-2.77 3.23-4.5.8-.9 1.74-1.82 2.83-2.69 1.1-.87 2.33-1.7 3.76-2.26 1.43-.57 3.03-.92 4.69-.92s3.37.35 4.84 1.21c1.48.85 2.55 2.2 2.95 3.74.21.76.27 1.57.22 2.35-.04.79-.16 1.55-.45 2.21-.13.31-.3.6-.49.86h1.2c.09-.14.18-.27.25-.42.39-.81.57-1.69.66-2.57.08-.88.05-1.82-.18-2.74-.22-.92-.65-1.83-1.25-2.61a7.73 7.73 0 0 0-2.23-1.95c-1.74-1.01-3.7-1.36-5.53-1.32-1.83.04-3.56.5-5.08 1.19s-2.8 1.65-3.86 2.62c-1.08.98-1.97 1.99-2.71 2.97-.56.73-1.04 1.43-1.45 2.09-.66 1.05-1.14 1.98-1.51 2.73h.12Z" class="cls-2"/><path d="M1140.7 101.08c.07.53.27 1.13.62 1.73.17.3.39.59.64.88h.5a5.75 5.75 0 0 1-.91-1.03c-.54-.78-.78-1.59-.8-2.25-.03-.67.15-1.19.29-1.51.05-.11.1-.21.14-.29-.04.07-.1.17-.16.28-.16.32-.36.82-.37 1.52 0 .2 0 .42.04.64v.02Zm7.15 228.66c-.15.25-.3.49-.48.73-.79 1.04-1.87 1.88-3.11 2.51-.31.15-.62.3-.95.43-.16.45-.33.9-.5 1.35.67-.24 1.32-.52 1.94-.84 1.34-.71 2.54-1.68 3.4-2.88.3-.41.53-.85.74-1.3h-1.04Zm.24 57.62c-.39.61-.77 1.23-1.14 1.83-.14.03-.4.54-.92 1.26-.69.01-1.55.02-2.56-.04-.67-.04-1.4-.09-2.19-.17-.81-.1-1.65-.13-2.53-.25-1.75-.21-3.66-.59-5.55-1.28a17.75 17.75 0 0 1-4.92-2.74c-1.37-1.09-2.44-2.26-3.29-3.3-.49-.62-.91-1.17-1.26-1.65-.13-.18-.25-.34-.37-.5-.12.16-.24.32-.37.5-.35.48-.77 1.03-1.26 1.65-.85 1.04-1.92 2.21-3.29 3.3a17.39 17.39 0 0 1-4.92 2.74c-1.89.69-3.8 1.07-5.55 1.28-.88.12-1.71.15-2.53.25-.79.08-1.52.13-2.19.17-1.01.05-1.88.05-2.56.04-.52-.73-.78-1.24-.92-1.26-.38-.61-.76-1.22-1.15-1.83 1.84.43 3.8.51 5.75.33 2.74-.26 5.51-1.02 8.16-2.25 2.65-1.23 5.21-2.93 7.34-5.2 1.05-1.14 2-2.43 2.72-3.87.3-.59.55-1.2.77-1.84.21.64.47 1.25.76 1.84.36.71.78 1.4 1.23 2.05.47.64.96 1.26 1.49 1.82 2.13 2.27 4.69 3.97 7.34 5.2 2.65 1.22 5.42 1.99 8.16 2.25 1.95.18 3.91.1 5.75-.33Z" class="cls-2"/><path d="M1145.54 391.1c-.05.06-.1.12-.15.17-.77.94-2 1.96-3.57 2.74 0-.04-.02-.06-.04-.07-.03-.01-.08.04-.14.15-.4.19-.83.36-1.27.51-2.28.78-4.51.92-6.11.89-.78-.01-1.42-.06-1.87-.09h-.04l.04-.7-.04-.02c-.24-.11-1.02-.5-1.98-1.32-1.17-.98-2.59-2.51-3.94-4.33-1.34-1.81-2.33-3.6-2.82-5.03 0-.02-.01-.03-.02-.05-.09-.27-.17-.51-.22-.74-.02.12-.06.23-.1.35l-.85-.38c.25-.37.47-.72.68-1.05.02-.04.04-.08.07-.12.07-.11.14-.23.2-.34.06.11.13.23.2.34.02.04.05.08.07.12.2.33.43.69.68 1.05.79 1.14 1.85 2.44 3.26 3.64 1.42 1.2 3.2 2.28 5.21 3.02 2.02.74 4.03 1.09 5.85 1.25.91.09 1.78.09 2.57.14.81.03 1.56.05 2.25.02.79-.02 1.49-.08 2.08-.16Z" class="cls-1"/><path d="M1131.54 103.69c.59-1.14 1.27-2.18 2.03-3.09 1.06-1.31 2.28-2.32 3.5-3.08a14.96 14.96 0 0 1 3.52-1.63c1.09-.35 2.08-.51 2.89-.58.81-.07 1.44-.05 1.87-.03h.14c-.04 0-.09-.01-.14-.01-.43-.04-1.06-.07-1.88-.02-.81.04-1.81.17-2.93.47-1.12.3-2.37.78-3.65 1.52-1.28.72-2.58 1.72-3.73 3.02-.89.99-1.68 2.15-2.37 3.44h.75Zm13.45-26.15c.65.1 1.05.19 1.15.21-.11-.01-.51-.08-1.16-.13-.76-.05-1.89-.04-3.23.2-1.34.23-2.9.71-4.53 1.45-1.63.74-3.32 1.75-4.96 2.99-3.29 2.47-5.81 5.35-7.25 7.67-.72 1.17-1.16 2.19-1.39 2.93-.05.15-.09.29-.12.42v.07l-.07.54h-.02v-.2c-.01.07-.02.13-.03.17.01-.07.02-.17.04-.3a7.436 7.436 0 0 1 .15-.79s.02-.09.03-.13c.17-.74.48-1.76 1.02-2.93.59-1.27 1.44-2.72 2.6-4.18 1.15-1.46 2.6-2.93 4.33-4.23 1.73-1.3 3.56-2.29 5.32-2.93 1.76-.64 3.44-.94 4.84-1.02 1.4-.08 2.53.05 3.3.18Z" class="cls-2"/><path d="M1142.74 71.11c.06.06.1.13.15.19-1.98-.24-3.81-.06-5.27.34-1.51.42-2.62 1.05-3.3 1.58-.69.53-.98.92-.93.97l-.22.35-.73.42c-.5.3-1.23.76-2.05 1.42-.83.67-1.76 1.54-2.66 2.63-.9 1.09-1.76 2.39-2.49 3.85a20.157 20.157 0 0 0-1.88 5.75c-.29-1.75-.87-3.76-1.88-5.75-.73-1.46-1.59-2.76-2.49-3.85-.89-1.09-1.82-1.96-2.65-2.63-.83-.66-1.55-1.12-2.05-1.42l-.73-.42-.25-.34s.03 0 .03-.01c.05-.05-.24-.44-.93-.97-.69-.52-1.79-1.16-3.3-1.58-1.46-.4-3.29-.58-5.27-.34.05-.06.1-.13.15-.19.45-.53 1-1.05 1.67-1.47.66-.42 1.47-.71 2.37-.91 1.77-.39 3.83-.18 5.77.66.51.22 1.01.47 1.48.74 1.32.76 2.48 1.7 3.47 2.66 1.34 1.31 2.37 2.68 3.14 3.88.5.78.87 1.49 1.17 2.09.12.25.23.48.32.69.1-.21.2-.44.32-.69.3-.61.67-1.32 1.17-2.09.77-1.2 1.8-2.56 3.14-3.88.99-.96 2.14-1.9 3.47-2.66.48-.27.97-.52 1.48-.74 1.94-.84 4-1.05 5.77-.66.89.2 1.7.49 2.36.91.67.42 1.22.95 1.67 1.47Z" class="cls-7"/><path d="M1141.5 395.46c.9-.38 1.72-.85 2.42-1.38-2.73 4.44-5.32 8.75-7.76 12.91-.13.22-.26.45-.39.67a612.81 612.81 0 0 0-5.45 9.47c.17-1.22.13-2.37-.04-3.35-.11-.6-.25-1.13-.41-1.6a8.22 8.22 0 0 0 1.78-.66c.88-.44 1.64-1.03 2.21-1.67.58-.64.96-1.32 1.19-1.93.02-.07.05-.13.07-.19.11-.3.17-.58.21-.81l-.23-.03c-.13-.02-.27-.04-.41-.07-1.06-.2-2.38-.65-3.51-1.6-1.29-1.06-1.97-2.49-2.28-3.57-.04-.13-.07-.26-.11-.38.35.1.72.19 1.08.25 2.16.37 4.29.06 6.04-.63 1.76-.69 3.14-1.76 4.05-2.84.81-.94 1.27-1.87 1.53-2.58Z" class="cls-2"/><path d="M1126.78 362.73c.31-1.17.77-2.25 1.3-3.23 1.07-1.98 2.36-3.59 3.62-4.99 2.54-2.77 4.93-4.65 6.58-5.92.93-.71 1.65-1.22 2.09-1.53l-.89-1.44c-.74.48-1.49.96-2.23 1.48-.53.37-1.05.76-1.56 1.15-2.95 4.31-6.38 8.3-10.08 11.84-.31.71-.59 1.43-.82 2.16-.4 1.22-.67 2.46-.83 3.72-.25 1.88-.26 3.77-.05 5.62.01.12.02.24.04.37.35 2.89 1.82 5.48 3.72 7.54 1.99 2.16 4.43 3.8 6.97 4.99 1.32.62 2.68 1.13 4.05 1.49l.45-1.71c-2.36-.64-4.65-1.77-6.69-3.34-2.32-1.79-4.2-4.12-5.23-6.72-1.05-2.61-1.24-5.35-1.02-7.85.12-1.26.3-2.44.59-3.62Z" class="cls-6"/><path d="M1140.71 395.76c-.33.52-.78 1.11-1.37 1.7-.91.91-2.2 1.81-3.82 2.38-1.6.57-3.52.81-5.44.48-.57-.1-1.13-.25-1.65-.43-.03-.06-.05-.08-.09-.08-.02 0-.04 0-.05.02a8.879 8.879 0 0 1-3.02-1.92 8.746 8.746 0 0 1-1.36-1.7c-.04-.06-.07-.12-.1-.17-.18-.33-.33-.66-.46-.98-.13.32-.28.66-.46.98-.03.06-.07.11-.1.17a8.76 8.76 0 0 1-1.35 1.7c-.81.79-1.84 1.47-3.02 1.92-.02-.02-.04-.02-.05-.02-.04 0-.07.02-.09.08-.52.19-1.08.34-1.65.44-1.92.33-3.84.09-5.44-.48a10.28 10.28 0 0 1-3.82-2.38 9.998 9.998 0 0 1-1.37-1.7c2.48.85 4.88.84 6.53.59 1.68-.26 2.63-.73 2.58-.88-.03-.08-.3-.08-.78-.05v-.7l.04-.02.55-.19c.4-.15 1-.38 1.69-.75 1.39-.72 3.21-2.05 4.65-4.01.72-.97 1.28-2 1.65-2.99.19-.48.33-.95.44-1.4.11.45.25.92.44 1.4.34.86.8 1.75 1.4 2.62.08.12.17.25.26.37 1.44 1.97 3.25 3.29 4.65 4.01.7.37 1.29.59 1.7.75l.54.19.04.02-.04.7c-.46-.03-.72-.03-.74.05-.05.15.9.62 2.58.88 1.65.26 4.05.26 6.53-.59Z" class="cls-1"/><path d="M1123.53 76.28c-.01-.12-.03-.33-.03-.63 0-.49.07-1.19.26-2.04.36-1.69 1.2-3.92 2.28-6.31.54-1.19 1.09-2.31 1.63-3.32.54-.99 1.07-1.89 1.55-2.61.78-1.17 1.51-1.84 1.76-2.05l-.53.38c-.24.19-.56.43-.91.74l-1.03-1.15c.18 0 .63-.48 1.49-.98.49-.3 1.12-.62 1.85-.88.08-.04.17-.07.26-.1.55-.19 1.16-.35 1.79-.44a6.86 6.86 0 0 1 2.57.04 4.4 4.4 0 0 0-.88.46c-.4.28-.79.72-1.04 1.26-.24.54-.36 1.14-.41 1.75-.1 1.21.03 2.46-.12 3.68-.04.3-.09.6-.17.87-.08.29-.16.6-.26.87-.19.55-.42 1.06-.69 1.5-.27.44-.58.83-.91 1.17-1.93.9-3.53 2.19-4.79 3.51a18.818 18.818 0 0 0-3.08 4.23c-.3.55-.53 1.07-.72 1.53.02-.47.04-1.07.07-1.78.02.13.04.22.06.29Z" class="cls-6"/><path d="M1133.51 52.13c.05 1.56-.27 2.84-.63 3.74l-.52-.1c.23-.9.44-2.13.3-3.59-.15-1.68-.76-3.62-1.77-5.66-.99-2.04-2.34-4.18-3.74-6.45-1.39-2.28-2.69-4.53-3.5-6.77-.12-.3-.21-.6-.3-.9-.09.3-.19.6-.3.9-.81 2.25-2.11 4.49-3.5 6.77-1.4 2.28-2.75 4.41-3.74 6.45-1 2.03-1.62 3.98-1.76 5.66-.13 1.31.02 2.42.22 3.29l-.57.08c-.31-.87-.55-2.03-.5-3.41.04-1.83.62-3.94 1.61-6.08.97-2.15 2.32-4.34 3.71-6.61 1.39-2.27 2.68-4.44 3.5-6.53.38-.94.63-1.87.83-2.78l.06-.28c.2-.93.34-1.81.45-2.62.11.81.25 1.69.45 2.62l.06.28c.2.91.45 1.84.82 2.78.82 2.09 2.11 4.26 3.5 6.53 1.39 2.28 2.73 4.47 3.71 6.61.99 2.14 1.57 4.25 1.61 6.08Zm-1.07 22.83.73-.42c-.24.15-1.26.84-2.46 2.18-1.39 1.54-3 3.89-4.39 6.68-1.39 2.79-2.32 5.48-2.71 7.52 0 .02-.01.05-.02.08-.12.61-.19 1.15-.22 1.61-.04-.46-.11-1-.23-1.61 0-.02-.01-.05-.02-.08-.4-2.03-1.32-4.73-2.71-7.52-1.39-2.79-3-5.14-4.39-6.68-1.2-1.34-2.22-2.03-2.46-2.18l.73.42c.5.3 1.23.76 2.05 1.42.83.67 1.76 1.54 2.65 2.63.9 1.09 1.76 2.39 2.49 3.85 1.01 1.99 1.59 4.01 1.88 5.75.29-1.75.87-3.76 1.88-5.75.73-1.46 1.59-2.76 2.49-3.85.9-1.09 1.83-1.96 2.66-2.63.83-.66 1.55-1.12 2.05-1.42Z" class="cls-2"/><path d="M1130.42 406.13c1.21 1.02 2.63 1.45 3.78 1.56a7.81 7.81 0 0 1-3.09 2.74c-.55.28-1.11.5-1.66.67-.17.06-.35.1-.52.15-.77.2-1.5.31-2.1.38-1.16.13-1.92.13-1.94.31h-.92v-.75c0-3.74-.19-7.14-.37-9.6-.03-.38-.05-.75-.07-1.08.05.23.1.46.17.7.28 1.02.81 2.09 1.56 3.06.75.97 1.66 1.73 2.53 2.29.89.57 1.74.94 2.46 1.22.73.26 1.33.43 1.74.55.25.07.44.12.54.15-.25-.1-1.04-.45-2.08-1.13-1.26-.82-2.9-2.1-4.25-3.83-1.36-1.72-2.11-3.63-2.38-5.11-.05-.23-.08-.45-.11-.66.23.32.49.63.77.93.92.97 2.15 1.79 3.55 2.32 0 .23 0 .51.04.8.07.63.25 1.38.63 2.15.37.77.95 1.54 1.72 2.17Zm2.25-353.95c.14 1.47-.07 2.7-.3 3.59-.02.1-.05.19-.08.28-1.19.39-2.15.99-2.8 1.57-.91.81-1.17 1.58-1.02 1.65.01 0 .03.01.04.01l1.03 1.15c-.22.19-.45.4-.68.63-.63.64-1.32 1.43-2.02 2.4-.69.97-1.34 2.09-1.9 3.33-.55 1.2-.95 2.4-1.21 3.53.13-3.15.24-6.94.23-11.03 0-5.45-.2-10.37-.37-13.94-.16-3.2-.23-5.3-.23-5.71 0 .38-.07 2.49-.23 5.71-.18 3.57-.37 8.49-.37 13.94 0 4.09.11 7.89.24 11.03-.27-1.13-.66-2.33-1.22-3.53-.57-1.25-1.22-2.37-1.91-3.33s-1.39-1.76-2.02-2.4c-.63-.63-1.2-1.08-1.59-1.37l-.52-.38-.04-.04.63-1.2c.15.08.27.15.4.23.92.55 1.38 1.05 1.52.97.15-.07-.1-.84-1.02-1.65-.65-.58-1.61-1.18-2.8-1.57-.05-.18-.11-.38-.16-.59-.2-.86-.35-1.98-.22-3.29.14-1.68.76-3.62 1.76-5.66.99-2.04 2.34-4.18 3.74-6.45 1.39-2.28 2.69-4.53 3.5-6.77.12-.3.21-.6.3-.9.09.3.19.6.3.9.81 2.25 2.11 4.49 3.5 6.77 1.4 2.28 2.75 4.41 3.74 6.45 1.01 2.03 1.62 3.98 1.77 5.66Z" class="cls-6"/><path d="m1132.34 394.7-.54-.19c-.41-.15-1-.38-1.7-.75-1.39-.72-3.21-2.05-4.65-4.01-.09-.12-.17-.25-.26-.37-.6-.87-1.06-1.76-1.4-2.62-.19-.48-.33-.95-.44-1.4-.11.45-.25.92-.44 1.4-.38.98-.93 2.01-1.65 2.99a13.776 13.776 0 0 1-4.65 4.01c-.7.37-1.29.59-1.69.75l-.55.19c.24-.11 1.03-.5 1.98-1.32 1.17-.98 2.58-2.51 3.94-4.33 1.34-1.81 2.34-3.6 2.82-5.03 0-.02.01-.03.02-.05.04-.13.09-.26.13-.39.04-.12.07-.24.1-.35.05.23.13.47.22.74 0 .02.01.03.02.05.49 1.43 1.49 3.22 2.82 5.03 1.36 1.82 2.78 3.35 3.94 4.33.95.82 1.73 1.21 1.98 1.32Zm.19 13.78c-.1-.03-.29-.09-.54-.15-.41-.12-1.02-.29-1.74-.55-.72-.28-1.58-.65-2.46-1.22-.87-.57-1.78-1.32-2.53-2.29-.75-.97-1.28-2.04-1.56-3.06-.07-.24-.12-.47-.17-.7l-.32-.02v-.06c-.05.25-.11.51-.18.78-.28 1.02-.81 2.09-1.56 3.06-.75.97-1.66 1.73-2.53 2.29-.88.57-1.74.94-2.46 1.22-.73.26-1.33.43-1.75.55l-.55.15c.24-.1 1.04-.45 2.08-1.13 1.26-.82 2.9-2.1 4.25-3.83 1.36-1.72 2.11-3.63 2.39-5.11.05-.23.08-.46.12-.66l.31-.02c0 .08.01.16.02.23 0-.08.01-.16.01-.21 0 .05 0 .12.01.21 0-.08.01-.15.02-.22l.32.02c.02.21.06.42.11.66.28 1.48 1.02 3.39 2.38 5.11 1.36 1.73 2.99 3 4.25 3.83 1.04.68 1.83 1.02 2.08 1.13Zm-2.08-348.78.53-.38c-.25.21-.98.88-1.76 2.05-.48.72-1.01 1.61-1.55 2.61-.54 1.01-1.09 2.13-1.63 3.32-1.08 2.39-1.92 4.62-2.28 6.31-.19.85-.26 1.55-.26 2.04 0 .3.02.51.03.63-.02-.07-.04-.16-.06-.29-.03.71-.05 1.3-.07 1.78h-.07c-.02-.47-.04-1.07-.08-1.79-.04.17-.06.29-.07.35.01-.1.04-.33.04-.69 0-.49-.07-1.19-.25-2.04-.37-1.69-1.2-3.92-2.29-6.31-.54-1.19-1.09-2.31-1.63-3.32-.54-.99-1.07-1.89-1.55-2.61-.78-1.18-1.52-1.85-1.76-2.05l.52.38c.4.3.96.74 1.59 1.37.63.64 1.32 1.43 2.02 2.4.69.97 1.34 2.09 1.91 3.33.55 1.2.95 2.41 1.22 3.53-.13-3.15-.25-6.95-.24-11.03 0-5.45.2-10.37.37-13.94.15-3.22.23-5.32.23-5.71 0 .4.08 2.5.23 5.71.17 3.57.37 8.49.37 13.94.01 4.09-.1 7.88-.23 11.03.26-1.13.66-2.32 1.21-3.53.56-1.25 1.21-2.37 1.9-3.33s1.38-1.76 2.02-2.4c.23-.23.46-.45.68-.63.35-.31.67-.55.91-.74Z" class="cls-2"/><path d="M1129.44 413.88c.12 1.27.01 2.79-.48 4.4-.48 1.62-1.33 3.29-2.36 5-1.03 1.7-2.11 3.3-3.01 4.83-.08.13-.16.26-.23.39-.07-.13-.15-.26-.23-.39-.9-1.52-1.98-3.12-3.01-4.83-1.03-1.71-1.88-3.38-2.36-5-.49-1.61-.6-3.13-.48-4.4.05-.57.14-1.09.24-1.55.89.17 1.7.19 2.36.14 1.23-.09 1.96-.37 1.96-.53s.93 0 .93 0c.02 3.45.2 6.56.36 8.86.16 2.22.24 3.67.24 3.93 0-.26.08-1.71.24-3.93.16-2.29.34-5.41.36-8.86h.92c0 .17.72.45 1.95.54.66.04 1.47.03 2.36-.14.1.46.19.98.24 1.55Z" class="cls-6"/><path d="M1123.96 411.19v.75c-.02 3.45-.2 6.56-.36 8.86-.16 2.22-.23 3.67-.24 3.93 0-.26-.07-1.71-.24-3.93-.15-2.29-.34-5.4-.36-8.86v-.75c0-3.74.2-7.14.37-9.6.03-.39.05-.76.07-1.1l.32.02c.02.34.04.7.07 1.08.17 2.46.37 5.85.37 9.6Z" class="cls-2"/><path d="M1100.63 77.75c.16-.02.54-.09 1.11-.12.77-.05 1.89-.04 3.23.2 1.35.23 2.9.71 4.53 1.45 1.63.74 3.32 1.75 4.96 2.99 3.3 2.47 5.81 5.35 7.25 7.67.72 1.17 1.17 2.19 1.39 2.93.05.15.09.29.12.42v.07l.07.54c-.92-1.95-2.41-4.06-4.41-6.04a24.27 24.27 0 0 0-7.74-5.24c-3.07-1.32-6.26-1.94-9.17-1.91-2.91.04-5.5.76-7.46 1.75-.96.47-1.78.99-2.48 1.48 0-.16.01-.33.03-.51.05-.73.14-1.53.34-2.34.21-.78.59-1.62 1.09-2.41 1.01-1.6 2.58-3.06 4.48-4.17 1.34-.78 2.73-1.34 4.1-1.71.28-.08.56-.15.84-.2.31-.07.61-.13.91-.17 1.9-.31 3.65-.24 5.07.05 1.43.28 2.52.76 3.25 1.14.65.34 1.03.58 1.15.58l.25.34c.24.15 1.26.84 2.46 2.18 1.39 1.54 3 3.89 4.39 6.68 1.4 2.79 2.32 5.48 2.71 7.52 0 .02.01.05.02.08.12.61.19 1.15.23 1.61l.21.05-.03.12s-.01.06-.02.08c-.06.28-.1.52-.13.71-.02.13-.03.23-.04.31 0-.07-.02-.15-.04-.25-.02-.19-.07-.45-.13-.76 0-.02-.01-.05-.02-.08-.16-.76-.48-1.82-1.05-3.05-.59-1.27-1.44-2.72-2.6-4.18a23.956 23.956 0 0 0-4.34-4.23c-1.73-1.3-3.57-2.29-5.32-2.93-1.76-.64-3.44-.94-4.84-1.02-1.4-.08-2.53.05-3.3.18-.57.09-.95.17-1.09.2Z" class="cls-7"/><path d="M1123.36 93.89v.02-.02Zm0-.03v.02c-.01-.04-.02-.1-.03-.16v.16h-.03l-.07-.54v-.07c-.03-.13-.07-.27-.12-.42-.22-.74-.68-1.76-1.39-2.93-1.44-2.32-3.95-5.2-7.25-7.67-1.65-1.24-3.34-2.25-4.96-2.99-1.63-.74-3.18-1.22-4.53-1.45-1.34-.24-2.46-.25-3.23-.2-.57.04-.95.1-1.11.12.15-.03.52-.11 1.09-.2.77-.12 1.9-.25 3.3-.18s3.08.37 4.84 1.02c1.76.64 3.59 1.63 5.32 2.93 1.73 1.29 3.18 2.76 4.34 4.23 1.15 1.46 2.01 2.91 2.6 4.18.57 1.23.89 2.29 1.05 3.05s.01.06.02.08c.07.31.11.57.13.76.02.1.03.19.04.25Z" class="cls-2"/><path d="M1123.18 76.33c.01-.07.04-.19.07-.35.04.72.06 1.31.08 1.79-.19-.46-.43-.98-.73-1.53-.7-1.31-1.7-2.8-3.08-4.23-1.26-1.32-2.86-2.61-4.79-3.51-.33-.34-.64-.72-.92-1.17-.27-.45-.51-.95-.69-1.5-.1-.27-.18-.58-.26-.87-.08-.28-.13-.57-.17-.87-.15-1.22-.01-2.47-.12-3.68-.05-.61-.16-1.21-.41-1.75-.24-.53-.63-.97-1.03-1.26a4.4 4.4 0 0 0-.88-.46c.75-.16 1.63-.19 2.56-.04.64.1 1.24.26 1.79.44.09.03.17.06.26.1.55.2 1.04.42 1.46.65l-.63 1.2.04.04c.24.21.97.87 1.76 2.05.48.72 1.01 1.61 1.55 2.61.54 1.01 1.09 2.13 1.63 3.32 1.08 2.39 1.92 4.62 2.29 6.31.19.85.25 1.55.25 2.04 0 .35-.03.58-.04.69Z" class="cls-6"/><path d="M1123.26 383.57c-.04.13-.09.25-.13.39 0 .02-.01.03-.02.05-.49 1.43-1.49 3.22-2.82 5.03-1.35 1.82-2.77 3.35-3.94 4.33-.95.82-1.74 1.21-1.98 1.32l-.04.02v.7c-.45.02-1.1.07-1.87.09-1.6.03-3.84-.1-6.11-.89-.45-.15-.87-.32-1.27-.5-.07-.12-.12-.17-.15-.16-.02 0-.03.03-.04.07-1.58-.78-2.81-1.8-3.58-2.74-.05-.06-.1-.11-.14-.17.6.08 1.29.14 2.08.16.69.02 1.44.01 2.25-.02.79-.05 1.66-.05 2.57-.14 1.82-.16 3.84-.52 5.85-1.25 2.02-.74 3.8-1.81 5.21-3.02 1.42-1.2 2.48-2.5 3.26-3.64l.85.38Z" class="cls-1"/><path d="M1114.19 408.48c.1-.03.29-.09.55-.15.42-.12 1.02-.29 1.75-.55.72-.28 1.58-.65 2.46-1.22.87-.57 1.78-1.32 2.53-2.29.75-.97 1.28-2.04 1.56-3.06.07-.27.13-.53.18-.78v.06c-.02.34-.04.71-.07 1.1-.18 2.46-.37 5.85-.37 9.6v.75h-.93c-.03-.17-.78-.18-1.94-.31-.6-.07-1.33-.18-2.1-.38-.17-.04-.35-.09-.52-.15-.55-.17-1.11-.38-1.66-.67a7.81 7.81 0 0 1-3.09-2.74c1.15-.11 2.56-.55 3.77-1.56.76-.63 1.34-1.41 1.72-2.17a6.495 6.495 0 0 0 .67-2.95c1.4-.53 2.63-1.35 3.55-2.32.29-.3.55-.61.79-.93-.03.21-.07.43-.12.66-.28 1.48-1.03 3.39-2.39 5.11-1.35 1.73-2.99 3-4.25 3.83-1.04.68-1.84 1.03-2.08 1.13Zm8-45.32c-.62.52-1.24 1.02-1.87 1.52.08.55.16 1.11.21 1.68.23 2.5.03 5.24-1.02 7.85-1.04 2.6-2.91 4.93-5.23 6.72-2.04 1.57-4.33 2.7-6.69 3.34l.45 1.71c1.37-.37 2.73-.87 4.05-1.49 2.54-1.19 4.97-2.83 6.97-4.99 1.9-2.06 3.37-4.65 3.73-7.54.02-.12.03-.25.04-.37.2-1.85.2-3.74-.05-5.62-.12-.94-.33-1.87-.58-2.8Z" class="cls-6"/><path d="M1119.46 365.34c-2.21 1.68-4.5 3.16-6.83 4.57-.45 1.09-1.04 2.05-1.65 2.86-.49.64-.96 1.24-1.51 1.73-.55.48-1.12.84-1.67 1.13-1.07.55-2.06.83-2.88.95-.02.23-.05.44-.09.64-.27 1.32-.6 1.97-.62 1.97-.04-.01.07-.33.2-.96l-1.56-.07c-.04.12-.07.23-.12.33-.05.13-.11.23-.16.32.05-.09.1-.2.15-.33.21-.5.3-1.36-.09-2.32-.03-.07-.08-.15-.12-.23-2.47 1.49-5 2.93-7.61 4.19.34.45.73.88 1.16 1.27.83.74 1.82 1.37 2.91 1.75 2.25.76 4.82.83 7.35.25 2.53-.57 5.03-1.74 7.22-3.42 2.18-1.67 3.92-3.81 4.91-6.2 1-2.38 1.25-4.94 1.11-7.34-.02-.36-.07-.72-.1-1.08Z" class="cls-6"/><path d="M1095.34 103.69c-.09-.14-.18-.27-.25-.42-.39-.81-.57-1.69-.66-2.57-.08-.88-.05-1.82.18-2.74.22-.92.64-1.83 1.25-2.61a7.73 7.73 0 0 1 2.23-1.95c1.74-1.01 3.7-1.36 5.53-1.32 1.83.04 3.56.5 5.08 1.19s2.8 1.65 3.86 2.62c1.08.98 1.97 1.99 2.71 2.97.56.73 1.04 1.43 1.45 2.09.66 1.05 1.15 1.98 1.51 2.73h1.21c-.55-1.14-1.15-2.24-1.81-3.29-.78-1.26-1.64-2.44-2.55-3.54-1.73-2.06-3.7-3.87-5.92-5.02-2.23-1.14-4.7-1.65-7.02-1.43-2.34.21-4.48 1.2-6.07 2.67-1.61 1.46-2.73 3.34-3.41 5.22-.33.94-.52 1.9-.51 2.84 0 .9.18 1.77.51 2.55h2.68Z" class="cls-1"/><path d="M1120.32 364.67c-.18.14-.36.29-.54.43-.11.08-.21.16-.32.24.04.36.08.72.1 1.08.15 2.4-.11 4.96-1.11 7.34s-2.74 4.52-4.91 6.2c-2.18 1.69-4.68 2.86-7.22 3.42-2.53.58-5.11.51-7.35-.25-1.08-.37-2.08-1.01-2.91-1.75-.43-.39-.83-.82-1.16-1.27l-.72.33c.37.56.81 1.08 1.31 1.56.88.84 1.93 1.57 3.16 2.04 2.42.89 5.2 1.02 7.91.45.34-.07.68-.15 1.02-.24 2.36-.64 4.65-1.77 6.69-3.34 2.32-1.79 4.19-4.12 5.23-6.72 1.05-2.61 1.24-5.35 1.02-7.85-.05-.57-.12-1.13-.21-1.68Z" class="cls-2"/><path d="M1096.05 102.83c.13.31.3.6.49.86h7.72c.36-.33.67-.67.91-1.03.54-.78.78-1.59.8-2.25a3.332 3.332 0 0 0-.45-1.8c.04.07.1.17.16.28.16.32.36.82.37 1.52 0 .2 0 .42-.04.64v.02l1.01.12h.01c.02-.01.24.64.04 1.88-.03.19-.09.4-.15.61h8.25c-.59-1.14-1.27-2.18-2.03-3.09a14.225 14.225 0 0 0-3.5-3.08 14.96 14.96 0 0 0-3.52-1.63c-1.09-.35-2.08-.51-2.89-.58-.81-.07-1.44-.05-1.87-.03h-.14c.04 0 .09-.01.14-.01.43-.04 1.06-.07 1.88-.02.81.04 1.81.17 2.93.47 1.12.3 2.37.78 3.65 1.52 1.27.72 2.57 1.72 3.73 3.02.89.99 1.68 2.15 2.37 3.44h2.2c-.67-1.17-1.69-2.77-3.23-4.5-.8-.9-1.74-1.82-2.83-2.69-1.1-.87-2.33-1.7-3.76-2.26-1.43-.57-3.03-.92-4.68-.92s-3.37.35-4.84 1.21c-1.48.85-2.55 2.2-2.95 3.74-.21.76-.27 1.57-.22 2.35.04.79.16 1.55.45 2.21Z" class="cls-1"/><path d="M1103.24 95.31c.81.07 1.79.24 2.89.58 1.09.34 2.3.87 3.52 1.63 1.22.76 2.44 1.77 3.5 3.08.75.9 1.43 1.95 2.03 3.09h.75c-.69-1.28-1.49-2.45-2.37-3.44-1.15-1.3-2.45-2.3-3.73-3.02-1.28-.74-2.53-1.22-3.65-1.52a14.272 14.272 0 0 0-4.81-.45c-.05 0-.1 0-.14.01h.14c.43-.02 1.06-.04 1.87.03Zm1.52 8.38c.25-.29.47-.59.64-.88.35-.6.55-1.19.62-1.73v-.02c.04-.23.05-.45.04-.64-.01-.69-.22-1.2-.37-1.52-.05-.11-.12-.21-.16-.28.04.08.09.18.15.29.14.32.32.84.3 1.51-.02.66-.27 1.47-.8 2.25-.24.35-.55.7-.91 1.03h.5Z" class="cls-2"/><path d="M1095.09 103.27c.07.15.17.28.25.42h1.2c-.19-.26-.36-.55-.49-.86-.29-.66-.41-1.42-.45-2.21-.05-.78.01-1.58.22-2.35.4-1.54 1.47-2.89 2.95-3.74 1.47-.86 3.19-1.21 4.84-1.21s3.25.35 4.68.92c1.43.56 2.67 1.39 3.76 2.26 1.1.87 2.03 1.79 2.83 2.69 1.54 1.73 2.56 3.34 3.23 4.5h.12c-.37-.75-.85-1.68-1.51-2.73-.42-.66-.89-1.37-1.45-2.09-.74-.97-1.63-1.99-2.71-2.97-1.07-.97-2.34-1.94-3.86-2.62-1.52-.69-3.25-1.15-5.08-1.19-1.83-.04-3.79.31-5.53 1.32-.86.5-1.64 1.17-2.23 1.95-.61.78-1.03 1.69-1.25 2.61-.23.93-.26 1.86-.18 2.74.08.87.27 1.76.66 2.57Zm22.83 297.99c-.04.12-.07.25-.11.38-.31 1.08-.99 2.51-2.28 3.57-1.13.95-2.45 1.4-3.51 1.6-.15.02-.28.04-.41.07l-.23.03c.04.23.1.51.21.81.02.06.04.13.07.19.23.6.62 1.28 1.19 1.93.58.65 1.34 1.23 2.22 1.67.6.3 1.2.52 1.78.66-.16.47-.3 1-.41 1.6-.17.98-.21 2.13-.04 3.35-1.71-3.05-3.53-6.21-5.45-9.47-.13-.22-.26-.45-.39-.67-2.44-4.15-5.03-8.46-7.76-12.91.7.53 1.52 1 2.42 1.38.26.71.72 1.64 1.53 2.58.92 1.08 2.29 2.15 4.05 2.84 1.74.69 3.88 1 6.04.63.37-.06.74-.15 1.08-.25Z" class="cls-2"/><path d="M1022.16 279.47v-3.95c-2.14-1.15-4.17-2.38-6.06-3.71h-6.27c2.36 2.12 4.91 4.14 7.67 6 .99.66 2 1.31 3.03 1.93.22.14.45.27.68.4.04.03.07.04.11.06.05.03.11.07.16.1l.52-.91c.05.02.11.06.17.08Zm-23.95-20.79c.5-1.12 1.01-2.24 1.52-3.37l-.22-.34c-.01-.02-.03-.04-.04-.05-.61-.95-1.16-1.89-1.67-2.82-.02-.02-.05-.04-.07-.06a23.39 23.39 0 0 1-3.38-3.57c-1.64-2.14-2.92-4.58-3.82-7.17l-1.23.4c.36 1.06.77 2.13 1.21 3.22.22.54.46 1.09.72 1.63.4.88.84 1.77 1.3 2.67.29.57.6 1.14.91 1.72 1.09 2.05 2.33 4.14 3.71 6.22.34.51.7 1.01 1.06 1.52Z" class="cls-6"/><path d="M997.68 259.87c.18-.4.36-.79.53-1.19-.36-.51-.72-1.01-1.06-1.52a74.836 74.836 0 0 1-3.71-6.22c-.31-.58-.62-1.15-.91-1.72-.46-.9-.9-1.78-1.3-2.67-.25-.54-.5-1.09-.72-1.63a64.57 64.57 0 0 1-1.21-3.21c-.95-2.77-1.58-5.39-2-7.81-.58-3.35-.75-6.28-.77-8.67-.01-2.4.13-4.26.24-5.51.05-.48.08-.87.11-1.16-.02.15-.04.33-.07.54 0 .04 0 .07-.01.11-.02.16-.03.33-.05.51-.13 1.25-.3 3.11-.35 5.51-.04 2.4.06 5.34.54 8.73.42 2.93 1.16 6.2 2.36 9.65.08.25.17.49.26.75.1.25.19.5.28.75 0 .03.02.05.03.08.26.69.55 1.4.86 2.1.58 1.34 1.23 2.69 1.92 4.06 1.05 2.11 2.25 4.25 3.61 6.39.45.71.92 1.42 1.41 2.14Zm24.48 20.81c-.23-.13-.46-.25-.68-.38-.05-.03-.11-.07-.16-.1-.04-.02-.07-.03-.11-.06-.23-.13-.46-.26-.68-.4a71 71 0 0 1-3.03-1.93c-2.75-1.86-5.3-3.88-7.67-6h-2.14c3.69 3.57 7.91 6.91 12.67 9.76l.51.3c.42.25.86.48 1.28.72v-1.91Zm82.71 93.82c.01.06.03.13.04.19.08.6.08 1.14.04 1.63.77-.16 1.7-.46 2.68-1.01.52-.29 1.06-.66 1.57-1.13.5-.46.94-1.07 1.41-1.7.46-.64.9-1.34 1.27-2.13-2.31 1.38-4.66 2.72-7 4.13Z" class="cls-2"/><path d="M1106.57 384.49c-2.71.57-5.5.44-7.91-.45-1.24-.47-2.28-1.2-3.16-2.04-.5-.48-.93-1-1.31-1.56-.73.34-1.46.66-2.2.97.85 1.72 2.32 3.18 4.19 4.1.22.11.45.21.69.31.33.14.67.26 1.02.36 1.98.61 4.18.73 6.39.51 1.25-.13 2.51-.37 3.76-.72l-.45-1.71c-.34.09-.68.17-1.02.24Zm-3.97-8.61c.03.08.08.17.11.25.23.61.26 1.17.21 1.64-.01.15-.04.28-.07.4l1.56.07c.02-.08.03-.16.05-.25.04-.23.09-.49.13-.79.02-.17.05-.57.05-.57l.02-.24s0-1.04-.11-1.63c0-.02 0-.04-.01-.05l-.54.33c-.46.28-.93.56-1.4.85Z" class="cls-6"/><path d="M1022.16 271.81h-3.1c1 .63 2.04 1.23 3.1 1.81v-1.81Z" class="cls-2"/><path d="M1012.07 179.49c-.06-.11-.12-.22-.18-.32-1.23.47-2.46.98-3.67 1.58-2.4 1.19-4.6 2.59-6.58 4.14a42.383 42.383 0 0 0-5.34 4.94c-3.13 3.44-5.33 7.07-6.94 10.22-.98 1.93-1.76 3.69-2.37 5.19 1.91-4.5 4.5-8.85 7.83-12.74 2.28-2.66 4.84-5.02 7.64-6.98.19-.13.37-.27.57-.39.76-.52 1.54-1 2.33-1.45 1.69-.96 3.44-1.79 5.23-2.47.28-.1.55-.2.82-.3.37-.13.74-.25 1.12-.37h.01c-.15-.34-.3-.69-.46-1.03Z" class="cls-1"/><path d="m1010.45 176.6-.06-.12c-2.01.9-3.99 1.98-5.88 3.27-2.78 1.9-5.24 4.13-7.4 6.47-.27.29-.54.58-.8.88a46.233 46.233 0 0 0-4.71 6.45c-3.05 5.01-4.94 10.02-6.14 14.3-.01.06-.03.11-.04.16-.16.58-.31 1.15-.44 1.7-.12.5-.24.99-.34 1.47-.02.08-.04.17-.05.25-.21.97-.38 1.89-.52 2.74.16-.67.32-1.33.5-2 .12-.43.24-.87.38-1.3.03-.09.05-.18.08-.27.04-.12.07-.23.1-.34.11-.36.23-.72.35-1.07.07-.23.15-.46.23-.69-.1.26-.18.49-.25.71l-.05.05.49-1.53c.25-.73.53-1.59.87-2.56.54-1.53 1.22-3.34 2.11-5.34 1.46-3.25 3.52-7.05 6.62-10.69a41.5 41.5 0 0 1 5.36-5.21 36.8 36.8 0 0 1 6.77-4.35c1.19-.59 2.4-1.1 3.61-1.55-.26-.47-.54-.94-.79-1.42Z" class="cls-1"/><path d="M996.64 262.18c.34-.77.69-1.54 1.04-2.31-.49-.71-.96-1.42-1.41-2.14a74.359 74.359 0 0 1-3.61-6.39c-.69-1.37-1.34-2.72-1.92-4.06-.31-.71-.6-1.41-.86-2.1-.01-.03-.02-.05-.03-.08-.1-.25-.19-.5-.28-.75l-1.5.52s.03.1.05.15c1.77 4.93 3.88 9.35 6.1 13.22.74 1.31 1.5 2.53 2.26 3.71.05.08.11.16.17.24Zm25.52 20.41c-.43-.24-.86-.47-1.28-.72l-.51-.3c-4.76-2.85-8.98-6.19-12.67-9.76h-3.17c.3.31.6.63.92.95.82.82 1.69 1.65 2.6 2.47 3.89 3.54 8.58 7.02 14.12 9.94v-2.58Zm-23.8-36.63c1.16 1.47 2.45 2.8 3.82 3.99 1.63-3.53 3.29-7.05 5-10.54-.08-.17-.17-.35-.24-.51-.33-.75-.5-1.26-.58-1.47l.03-.04s-.03-.01-.05-.03a7.84 7.84 0 0 1-1.21-.84c-.97-.8-1.64-1.71-2.07-2.56-.44-.85-.66-1.63-.78-2.26-.23-1.27-.15-1.95-.11-1.95l1.41-.38c-.04-.28-.05-.55-.05-.82 0-.95.21-1.77.5-2.45.28-.67.63-1.17.95-1.56.11-.14.22-.27.33-.37-.1.11-.21.24-.32.39-.31.38-.65.9-.92 1.56-.27.67-.47 1.49-.44 2.43.02.93.27 1.96.85 2.93.58.97 1.5 1.84 2.69 2.41.71.36 1.52.64 2.37.82 2.53-4.99 5.18-9.91 8.01-14.71-.03-.02-.05-.05-.07-.07-1.48-1.37-3.39-2.35-5.46-2.93-2.06-.56-4.31-.74-6.51-.37-1.1.19-2.18.51-3.19.99-1.01.49-1.96 1.15-2.82 1.91-1.72 1.55-3.05 3.57-3.97 5.8a21.63 21.63 0 0 0-1.54 7.16c-.11 2.49.19 4.97.93 7.26.37 1.14.85 2.24 1.45 3.26.6 1.03 1.28 2.01 2.02 2.94Z" class="cls-6"/><path d="M1013.87 183.61c-.63.22-1.25.44-1.87.7-1.77.73-3.45 1.6-5.02 2.58-1.02.63-2.01 1.3-2.94 2-.13.1-.26.2-.39.31a42.397 42.397 0 0 0-5.89 5.46 44.555 44.555 0 0 0-4.62 6.16c-.08.13-.17.27-.25.4-.66 1.08-1.25 2.14-1.77 3.17-.41.8-.78 1.59-1.12 2.35-1.65 3.74-2.43 6.98-2.82 9.22-.25 1.41-.35 2.43-.41 2.99.03-.28.08-.66.16-1.15.08-.51.19-1.11.34-1.82.47-2.21 1.39-5.39 3.19-9.02.75-1.52 1.65-3.12 2.71-4.76.2-.31.41-.63.62-.94 1.33-1.96 2.91-3.94 4.74-5.87 1.47-1.55 3.11-3.06 4.9-4.47.43-.35.89-.69 1.34-1.02 2.33-1.69 4.92-3.2 7.73-4.36.61-.25 1.23-.48 1.86-.69-.16-.41-.32-.81-.49-1.21Z" class="cls-2"/><path d="M1015.84 188.98c-.43-1.41-.94-2.79-1.48-4.15-.62.21-1.24.44-1.86.69-2.81 1.16-5.39 2.67-7.73 4.36-.46.33-.91.67-1.34 1.02a44.14 44.14 0 0 0-4.9 4.47 46.561 46.561 0 0 0-4.74 5.87c-.21.31-.42.63-.62.94a47.596 47.596 0 0 0-2.71 4.76c-1.8 3.63-2.72 6.81-3.19 9.02-.15.71-.26 1.32-.34 1.82-.08.49-.13.87-.16 1.15 0 .05-.01.1-.01.13v.01h.07c.02-.2.05-.39.07-.54-.03.29-.07.69-.11 1.16-.12 1.26-.25 3.12-.24 5.51.02 2.39.19 5.32.77 8.67.42 2.42 1.05 5.04 2 7.81l1.23-.4c-.2-.6-.39-1.21-.55-1.82-.87-3.28-1.12-6.69-.7-9.98.42-3.29 1.52-6.46 3.28-9.17.81-1.24 1.74-2.4 2.79-3.41.15-.51.31-1.02.49-1.55.08-.24.17-.49.26-.74.95-2.63 2.26-5.59 4.36-8.48 1.05-1.44 2.31-2.85 3.82-4.12 1.5-1.24 3.17-2.4 5.02-3.39 2.52-1.35 5.37-2.39 8.42-2.96-.58-2.25-1.2-4.5-1.88-6.71Z" class="cls-6"/><path d="M1007.16 233.89c-1.19-.57-2.11-1.44-2.69-2.41-.58-.97-.83-2-.85-2.93-.03-.94.17-1.76.44-2.43.27-.67.61-1.18.92-1.56.12-.15.22-.27.32-.39a6.471 6.471 0 0 0-1.28 1.93c-.29.67-.5 1.5-.5 2.45 0 .27.02.54.05.82.01.1.03.19.05.28.12.63.34 1.29.7 1.91.56 1.01 1.51 1.94 2.71 2.56.71.38 1.5.68 2.34.89l.15-.3a9.48 9.48 0 0 1-2.37-.82Z" class="cls-2"/><path d="M997.39 246.74c1.3 1.61 2.75 3.05 4.28 4.32l.51-1.11c-1.37-1.2-2.66-2.52-3.82-3.99-.74-.93-1.42-1.91-2.02-2.94-.6-1.02-1.08-2.12-1.45-3.26-.74-2.29-1.04-4.78-.93-7.26.11-2.48.63-4.92 1.54-7.16.91-2.23 2.25-4.25 3.97-5.8.85-.77 1.81-1.42 2.82-1.91 1.01-.49 2.09-.81 3.19-.99 2.2-.37 4.45-.19 6.51.37 2.07.57 3.98 1.55 5.46 2.93.03.02.05.05.07.07.16-.27.32-.55.48-.82-1.57-1.49-3.57-2.55-5.73-3.19-2.2-.64-4.59-.86-6.98-.5-1.2.18-2.4.52-3.53 1.05-1.14.54-2.18 1.25-3.12 2.08-1.9 1.67-3.35 3.86-4.34 6.23-.99 2.38-1.54 4.96-1.66 7.6-.11 2.63.21 5.26 1.01 7.71.4 1.23.93 2.41 1.58 3.51.66 1.09 1.37 2.11 2.14 3.07Z" class="cls-2"/><path d="M1009.64 174.99c-1.28.68-2.46 1.38-3.52 2.08-.44.28-.85.57-1.24.86 1.59-1.02 3.24-1.88 4.92-2.62-.05-.11-.11-.21-.16-.32Zm8.46 22.22c-2.94.51-5.69 1.46-8.13 2.72-1.77.92-3.39 2-4.84 3.15a21.993 21.993 0 0 0-3.68 3.81c-2.06 2.71-3.42 5.54-4.43 8.08-.09.23-.19.47-.27.7.56-.45 1.14-.87 1.75-1.25.14-.26.29-.54.46-.83 1.16-2 2.92-4.45 5.61-6.78a24.73 24.73 0 0 1 6.1-3.88c2.39-1.05 5.15-1.79 8.1-1.88h.27c-.3-1.29-.61-2.57-.93-3.85Z" class="cls-7"/><path d="M1011.25 178.02c-1.21.45-2.42.97-3.61 1.55-2.48 1.22-4.76 2.7-6.77 4.35-2.02 1.63-3.81 3.4-5.36 5.21-3.1 3.64-5.15 7.44-6.62 10.69-.89 2-1.58 3.8-2.11 5.34l.21.07c.61-1.5 1.38-3.26 2.37-5.19 1.61-3.15 3.81-6.78 6.94-10.22 1.56-1.71 3.35-3.38 5.34-4.94 1.98-1.55 4.18-2.96 6.58-4.14 1.21-.6 2.44-1.11 3.67-1.58-.22-.38-.43-.77-.64-1.15Z" class="cls-2"/><path d="M1019.31 202.26h-.52c-2.79.07-5.41.72-7.71 1.67-2.3.97-4.28 2.24-5.93 3.59a27.46 27.46 0 0 0-5.63 6.3c1.52-.84 3.14-1.44 4.79-1.81.43-.4.9-.81 1.45-1.19.93-.69 2.02-1.32 3.23-1.93 1.21-.59 2.59-1.12 4.1-1.46 1.51-.33 3.16-.45 4.84-.25.88.1 1.77.3 2.64.6-.41-1.84-.83-3.68-1.25-5.51Z" class="cls-4"/><path d="M1020.91 209.31c-1.02-.43-2.08-.72-3.14-.85-1.53-.2-3.04-.11-4.44.16-1.41.28-2.71.73-3.88 1.26-1.19.54-2.26 1.1-3.17 1.71-.05.04-.11.07-.16.1.68-.09 1.37-.14 2.05-.15 2.96-.08 5.86.52 8.43 1.7 1.32.6 2.55 1.38 3.64 2.28.5-.8 1.02-1.59 1.53-2.38l-.87-3.82Z" class="cls-2"/><path d="M1007.03 234.13c-1.2-.62-2.14-1.55-2.71-2.56-.35-.62-.58-1.28-.7-1.91-.02-.1-.04-.19-.05-.28l-1.41.38s.04.07.07.19c.06.28.14.85.37 1.67.18.6.44 1.33.89 2.09.46.77 1.12 1.59 2.05 2.28.16.12.34.25.52.37.5.33 1.08.61 1.71.86.13.05.28.08.42.12.39-.78.78-1.55 1.17-2.33-.84-.21-1.63-.51-2.34-.89Z" class="cls-6"/><path d="M995.74 247.41c.65.86 1.36 1.65 2.11 2.39.33.32.68.64 1.02.95.7.61 1.42 1.18 2.15 1.73.22-.47.43-.95.65-1.42a31.228 31.228 0 0 1-4.28-4.32c-.77-.96-1.49-1.98-2.14-3.07-.65-1.1-1.17-2.28-1.58-3.51-.8-2.45-1.12-5.08-1.01-7.71.12-2.64.67-5.22 1.66-7.6.99-2.37 2.43-4.56 4.34-6.23.94-.84 1.99-1.54 3.12-2.08 1.13-.53 2.33-.87 3.53-1.05 2.39-.36 4.78-.14 6.98.5 2.16.64 4.15 1.7 5.73 3.19.47-.8.95-1.59 1.44-2.38-1.03-.86-2.21-1.6-3.49-2.17-2.35-1.05-5.02-1.58-7.74-1.49-1.59.05-3.21.32-4.77.81-.37.11-.74.24-1.1.39-.72.28-1.42.61-2.1.99-.93.52-1.82 1.14-2.65 1.83-.18.15-.36.31-.52.46-.53.48-1.03 1-1.5 1.54-.43.49-.82 1.01-1.2 1.54-.13.18-.25.36-.37.55-1.61 2.49-2.62 5.41-3 8.46-.39 3.06-.16 6.24.66 9.31.78 2.89 2.06 5.63 3.78 7.99.1.13.19.26.29.39Z" class="cls-6"/><path d="M1013.23 182.09s-.09.03-.14.04c-.37.11-.75.24-1.12.37-.59.2-1.18.43-1.76.68-.75.31-1.5.65-2.23 1.02a36.4 36.4 0 0 0-6.2 3.97 40.282 40.282 0 0 0-5.64 5.45c-3.18 3.72-5.68 7.89-7.54 12.21-.3.69-.58 1.39-.84 2.09-.36.94-.69 1.88-.99 2.83-1.91 6.07-2.68 12.26-2.35 18.08.17 2.92.63 5.72 1.33 8.41.43 1.73.91 3.41 1.44 5.04.19.61.39 1.22.6 1.81.08.25.17.51.27.77l1.5-.52c-.08-.25-.17-.5-.26-.75a52.66 52.66 0 0 1-2.36-9.65c-.49-3.39-.58-6.33-.54-8.73.05-2.4.22-4.26.35-5.51.02-.18.04-.35.05-.51 0-.04 0-.07.01-.11h-.07v-.02c0-.04 0-.08.01-.12.05-.58.16-1.59.41-3 .39-2.24 1.16-5.48 2.82-9.22.34-.76.71-1.55 1.12-2.35.52-1.03 1.11-2.09 1.77-3.17.08-.13.16-.27.25-.4 1.28-2.05 2.81-4.13 4.62-6.16 1.71-1.91 3.67-3.77 5.89-5.46.13-.11.26-.21.39-.31.93-.7 1.92-1.37 2.94-2 1.57-.97 3.25-1.84 5.02-2.58.62-.26 1.24-.48 1.87-.7-.21-.51-.42-1.01-.64-1.52Z" class="cls-6"/><path d="M996.1 263.4c-.99-1.42-1.98-2.91-2.95-4.54a80.498 80.498 0 0 1-6.39-13.35c-.48-1.29-.94-2.62-1.37-3.98a679.956 679.956 0 0 0-15.35-15.78c-.12-.12-.23-.24-.35-.35.12-.12.23-.24.35-.36 3.78-3.76 8.45-8.5 13.82-14.16.19-1.04.43-2.13.71-3.29.32-1.27.7-2.61 1.16-4 .75-3.05 2.92-6.75 5.03-10.63.08-.15.17-.31.27-.47-2.72 3-5.35 5.85-7.87 8.55a614.07 614.07 0 0 1-18.47 18.93c-.08.08-.17.17-.26.25-1.59 1.56-3.07 2.97-4.4 4.24-.33.32-.66.62-.97.93.31.29.64.61.97.93 1.34 1.28 2.81 2.69 4.4 4.25.08.08.17.16.25.25 5.07 4.96 11.35 11.32 18.48 18.93 4.01 4.28 8.29 8.98 12.77 14.03.06-.13.12-.26.17-.39Z" class="cls-5"/><path d="M984.26 237.64c.2.77.41 1.52.63 2.26a564.574 564.574 0 0 0-14.48-14.5c3.65-3.52 8.12-7.93 13.21-13.18-.11.64-.19 1.26-.27 1.84-.2 1.59-.3 2.97-.35 4.11-.03.97-.04 1.79-.02 2.41v.02c-.3 2.82-.36 5.62-.17 8.34.19 3.01.7 5.95 1.44 8.7Z" class="cls-2"/><path d="m1090.29 212.13-45.98-.1s-.6 26.5 22.94 26.55c23.53.05 23.04-26.46 23.04-26.46Zm-12.28 15.85c-2.61 2.63-6.13 3.9-10.76 3.89-4.63 0-8.14-1.3-10.74-3.94-2.55-2.59-3.92-6.1-4.65-9.16l30.83.06c-.74 3.05-2.12 6.56-4.69 9.13Zm-75.62-118.53-.07 32.41 245.23.51.07-32.41-245.23-.51Zm232.72 26.15-15.25-15.15-15.39 15.09-8.2-.02-8.79-.02-15.24-15.15-15.39 15.09-8.47-.02-8.52-.02-15.25-15.15-15.39 15.09-8.31-.02-8.67-.02-15.25-15.15-15.39 15.09-7.9-.02-9.08-.02-15.25-15.15-15.39 15.09-10.52-.02 25.93-25.45 23.76 23.55 23.86-23.46 23.76 23.55 23.86-23.46 23.76 23.55 23.86-23.46 23.76 23.55 23.86-23.46 25.74 25.55-10.51-.02Zm-144.93 131.84c-11.43 6.88-11.14 34.68 16.56 37.21 27.7 2.53 35.38-15.93 30.22-45.29-4.8-27.35-29.98-73.58-29.98-73.58l-5.66 3.63c.27.42 21.88 40.06 28.92 70.35 4.28 18.41-.6 29.47-5.67 34.39-2.78 2.7-5.91 3.81-11.85 3.79-1.33 0-3.89.14-5.39 0-12.74-1.16-16.23-8.27-17.17-12.41-1.27-5.58.8-10.75 3.45-12.34 13.81-10.3 24.78-4.15 22.6 3.69-2.19 7.84-8.08 11.51-8.08 11.51s15.46-2.18 15.97-11.99-8.06-15.53-16.4-15.55-17.54 6.56-17.54 6.56Zm-48.27-72.27s1.86 10 15.63 10.03 17.84-4.02 32.75 2.24c0 0 3.62 0 2.9-3.04 0 0-9.88-6.4-25.88-3.82-16 2.58-18.46.11-25.41-5.42Z" class="cls-3"/><path d="M1244.22 229.84s-.03.03-.05.1c0 .03-.01.05-.02.09-.06.27-.14.85-.37 1.66-.18.59-.44 1.32-.89 2.08-.46.77-1.11 1.57-2.03 2.27.09.22.17.44.25.66.06-.04.12-.08.17-.13.96-.8 1.63-1.7 2.06-2.55.44-.84.65-1.62.78-2.25.23-1.26.15-1.94.11-1.94Z" class="cls-2"/><path d="M1257.02 229.6c-.41-3.26-1.51-6.42-3.26-9.11a19.35 19.35 0 0 0-2.77-3.38c-.15-.5-.31-1.01-.48-1.54-.08-.24-.17-.49-.26-.74-.95-2.61-2.25-5.55-4.33-8.43-1.05-1.43-2.3-2.84-3.8-4.09-.9-.74-1.88-1.45-2.91-2.12-.12.48-.25.95-.37 1.43.85.55 1.67 1.12 2.44 1.73 1.42 1.14 2.63 2.45 3.66 3.79 2.05 2.69 3.4 5.51 4.4 8.03.09.23.19.47.27.69-.56-.44-1.13-.86-1.74-1.24-.14-.26-.29-.54-.46-.82-1.15-1.98-2.9-4.42-5.57-6.74-1.09-.94-2.34-1.85-3.74-2.66l-.27 1.03c1.26.71 2.4 1.5 3.41 2.33 2.59 2.13 4.38 4.39 5.6 6.26-1.51-.83-3.12-1.43-4.75-1.8-.42-.4-.9-.8-1.44-1.18-.93-.68-2.01-1.31-3.21-1.91a15 15 0 0 0-.55-.24c-.1.35-.19.71-.29 1.06.12.05.25.1.37.15 1.18.54 2.24 1.1 3.15 1.69.05.03.11.07.16.1-.68-.09-1.36-.14-2.03-.15-.73-.02-1.45.02-2.17.08-.15.55-.31 1.1-.46 1.65.85-.1 1.71-.16 2.59-.12 1.58.05 3.19.32 4.74.81.37.11.73.24 1.09.38.71.28 1.41.61 2.08.99.93.52 1.81 1.13 2.64 1.82.18.15.35.31.52.46.53.48 1.02.99 1.49 1.53a19.572 19.572 0 0 1 1.56 2.08c1.6 2.47 2.6 5.38 2.98 8.41.38 3.04.16 6.2-.65 9.25-.77 2.88-2.05 5.59-3.75 7.93-.1.13-.19.26-.29.39-.64.86-1.35 1.64-2.1 2.37-.33.32-.67.64-1.02.95-.64.56-1.31 1.08-1.98 1.59.11.65.2 1.29.29 1.94.02-.01.04-.03.06-.04-.01.01-.02.02-.02.03 0 .01-.02.03-.03.04.09.61.17 1.23.25 1.84.28-.41.55-.81.8-1.21.01-.02.02-.04.03-.05.6-.95 1.16-1.88 1.66-2.8.02-.02.05-.04.07-.06 1.21-1.04 2.36-2.24 3.36-3.55 1.63-2.13 2.91-4.55 3.8-7.12.2-.6.38-1.21.54-1.81.87-3.26 1.11-6.65.69-9.91Z" class="cls-2"/><path d="M1287.37 225.22c-.3-.3-.63-.62-.96-.95-1.3-1.29-2.74-2.72-4.29-4.28l-.23-.23c-4.96-5-11.14-11.37-18.15-18.99-5.81-6.31-12.21-13.5-19-21.41-.23.81-.45 1.62-.68 2.44 1.89 1.49 3.62 3.11 5.19 4.8.27.29.53.58.8.87 1.81 2.06 3.35 4.23 4.68 6.4 3.03 4.98 4.91 9.96 6.09 14.21.01.06.03.11.04.16.16.57.31 1.14.44 1.69.12.5.23.99.33 1.46.02.08.03.17.05.24.2.97.37 1.87.52 2.72-.16-.66-.32-1.32-.5-1.99-.12-.43-.24-.86-.37-1.29-.03-.09-.05-.18-.08-.27-.04-.12-.07-.23-.1-.33-.11-.35-.23-.71-.35-1.06-.07-.23-.15-.46-.23-.69.09.26.18.49.25.7l.05.05-.48-1.52c-.25-.72-.53-1.58-.87-2.54l-.21.07c-1.9-4.47-4.47-8.79-7.77-12.66-2.26-2.64-4.81-4.98-7.59-6.93-.18-.13-.37-.26-.56-.39-.09-.06-.19-.12-.29-.18-.16.59-.32 1.18-.47 1.77.68.46 1.34.94 1.99 1.45.79.63 1.56 1.29 2.3 1.97 1.16 1.07 2.26 2.22 3.3 3.43 3.16 3.69 5.64 7.84 7.49 12.13.3.69.58 1.38.84 2.08.36.93.68 1.87.98 2.81 1.9 6.03 2.67 12.18 2.33 17.96-.17 2.9-.63 5.68-1.32 8.36-.43 1.72-.91 3.39-1.43 5.01-.19.6-.39 1.21-.6 1.8-.08.25-.17.51-.27.76-.01.05-.03.1-.05.15a81.77 81.77 0 0 1-6.06 13.13 62.88 62.88 0 0 1-2.25 3.68c-.87 1.27-1.86 2.6-2.95 3.98.06 1.06.11 2.12.15 3.18a771.71 771.71 0 0 1 16.66-18.69 711.74 711.74 0 0 1 18.15-19c.08-.07.16-.15.23-.23 1.56-1.56 3-2.99 4.29-4.28.33-.33.66-.65.97-.95.1-.11.2-.2.3-.3-.1-.11-.2-.21-.31-.31Zm-25.36 12.46c.73-2.73 1.24-5.65 1.43-8.64.18-2.7.13-5.48-.17-8.28v-.02c.02-.62.01-1.43-.02-2.4-.05-1.14-.15-2.51-.35-4.08-.07-.58-.15-1.19-.26-1.83 5.06 5.22 9.5 9.6 13.13 13.1a556.8 556.8 0 0 0-14.38 14.4c.22-.74.43-1.48.63-2.24Zm24.08-11.23c-1.33 1.27-2.79 2.67-4.37 4.22-.08.08-.17.16-.25.25-5.04 4.93-11.27 11.24-18.36 18.81-4.77 5.1-9.92 10.77-15.35 16.94 1.81-2.3 3.64-4.92 5.42-7.9 2.31-3.86 4.51-8.29 6.35-13.26.48-1.28.93-2.6 1.36-3.95 5.97-6.33 11.14-11.59 15.24-15.67.12-.11.23-.23.35-.35l-.35-.35c-3.75-3.73-8.4-8.44-13.73-14.07-.19-1.03-.42-2.12-.7-3.27-.32-1.27-.7-2.59-1.15-3.98-.75-3.03-2.9-6.7-5-10.56-.08-.15-.17-.31-.26-.46 2.7 2.98 5.31 5.81 7.82 8.49 7.07 7.56 13.31 13.87 18.35 18.8.09.08.17.17.26.25 1.58 1.55 3.04 2.95 4.37 4.22.33.32.66.62.97.92-.3.29-.63.6-.97.92Z" class="cls-2"/><path d="M1287.05 225.53c-.3.29-.63.6-.97.92-1.33 1.27-2.79 2.67-4.37 4.22-.08.08-.17.16-.25.25-5.04 4.93-11.27 11.24-18.36 18.81-4.77 5.1-9.92 10.77-15.35 16.94 1.81-2.3 3.64-4.92 5.42-7.9 2.31-3.86 4.51-8.29 6.35-13.26.48-1.28.93-2.6 1.36-3.95 5.97-6.33 11.14-11.59 15.24-15.67.12-.11.23-.23.35-.35l-.35-.35c-3.75-3.73-8.4-8.44-13.73-14.07-.19-1.03-.42-2.12-.7-3.27-.32-1.27-.7-2.59-1.15-3.98-.75-3.03-2.9-6.7-5-10.56-.08-.15-.17-.31-.26-.46 2.7 2.98 5.31 5.81 7.82 8.49 7.07 7.56 13.31 13.87 18.35 18.8.09.08.17.17.26.25 1.58 1.55 3.04 2.95 4.37 4.22.33.32.66.62.97.92Z" class="cls-5"/><path d="M1262.64 212.43c5.06 5.22 9.5 9.6 13.13 13.1a556.8 556.8 0 0 0-14.38 14.4c.22-.74.43-1.48.63-2.24.73-2.73 1.24-5.65 1.43-8.64.18-2.7.13-5.48-.17-8.28v-.02c.02-.62.01-1.43-.02-2.4-.05-1.14-.15-2.51-.35-4.08-.07-.58-.15-1.19-.26-1.83Z" class="cls-2"/><path d="M1261.68 211.62c-.02-.08-.03-.16-.05-.24-.1-.47-.22-.96-.33-1.46-.13-.55-.28-1.12-.44-1.69 0-.05-.03-.1-.04-.16-1.18-4.25-3.06-9.23-6.09-14.21-1.33-2.17-2.87-4.34-4.68-6.4-.27-.3-.53-.59-.8-.87-1.56-1.69-3.3-3.31-5.19-4.8l-.33 1.18c.61.43 1.22.87 1.79 1.34 2 1.62 3.79 3.37 5.32 5.17 3.08 3.62 5.12 7.39 6.58 10.62.88 1.99 1.57 3.78 2.1 5.3.34.96.62 1.82.87 2.54l.48 1.52-.05-.05c-.07-.22-.16-.45-.25-.7.08.23.16.46.23.69.12.35.23.71.35 1.06.04.11.06.22.1.32.03.1.05.19.08.28.13.43.25.86.37 1.29.18.67.34 1.32.5 1.99-.15-.85-.31-1.76-.52-2.72Z" class="cls-1"/><path d="M1259.51 210.98c-.3-.94-.62-1.88-.98-2.81-.26-.7-.54-1.39-.84-2.08-1.85-4.3-4.33-8.44-7.49-12.13a38.238 38.238 0 0 0-3.3-3.43 35.69 35.69 0 0 0-2.3-1.97c-.65-.51-1.32-.99-1.99-1.45-.17.65-.35 1.31-.52 1.96.09.06.18.12.26.19.13.1.27.2.4.31 2.21 1.68 4.15 3.53 5.86 5.42 1.8 2.02 3.32 4.09 4.59 6.12.08.13.17.27.25.4.66 1.07 1.24 2.12 1.76 3.15.41.8.77 1.57 1.11 2.33 1.64 3.72 2.42 6.94 2.8 9.16.24 1.4.35 2.41.41 2.97 0-.07-.02-.14-.03-.23h-.07c.01.15.03.31.05.48.02.16.03.33.05.51.13 1.24.3 3.09.35 5.48.03 2.38-.06 5.3-.54 8.67-.42 2.91-1.15 6.16-2.34 9.59-.08.24-.17.49-.26.74l1.49.52c.1-.25.19-.51.27-.76.21-.59.41-1.2.6-1.8.52-1.62 1-3.29 1.43-5.01.69-2.68 1.15-5.46 1.32-8.36.33-5.78-.43-11.94-2.33-17.96Z" class="cls-6"/><path d="M1259.53 219.87c-.02-.18-.03-.35-.05-.51-.02-.17-.04-.33-.05-.48-.01-.06-.02-.11-.02-.17.03.29.06.68.11 1.15.11 1.25.25 3.1.24 5.48-.02 2.37-.19 5.29-.76 8.62-.42 2.41-1.05 5.01-1.99 7.76-.36 1.05-.76 2.12-1.2 3.2-.22.54-.46 1.08-.71 1.62-.4.88-.83 1.76-1.29 2.65-.29.57-.59 1.14-.9 1.71a71.324 71.324 0 0 1-3.69 6.18c-.82 1.23-1.71 2.46-2.64 3.68.05.59.11 1.18.15 1.78 1.22-1.62 2.34-3.26 3.37-4.89a70.76 70.76 0 0 0 3.58-6.35c.69-1.36 1.33-2.7 1.91-4.03.31-.7.59-1.4.85-2.09.01-.03.02-.05.03-.08.1-.24.19-.5.28-.74.08-.25.17-.5.26-.74 1.19-3.43 1.92-6.67 2.34-9.59.48-3.37.58-6.29.54-8.67-.05-2.39-.21-4.24-.35-5.48Z" class="cls-2"/><path d="M1259.51 219.87c-.05-.47-.08-.87-.11-1.15 0 .05.01.11.02.17h.07c-.03-.25-.07-.56-.13-.92-.08-.5-.18-1.11-.33-1.81-.47-2.2-1.38-5.36-3.17-8.96a48.97 48.97 0 0 0-2.69-4.73c-.2-.31-.41-.62-.62-.93-1.32-1.94-2.9-3.92-4.71-5.83a45.423 45.423 0 0 0-6.07-5.35c-.86 3.29-1.7 6.58-2.56 9.86 1.03.67 2.01 1.37 2.91 2.12 1.5 1.26 2.75 2.66 3.8 4.09 2.08 2.87 3.38 5.81 4.33 8.43.08.24.17.5.26.74.17.53.33 1.04.48 1.54 1.03 1 1.97 2.15 2.77 3.38 1.75 2.7 2.85 5.85 3.26 9.11.41 3.27.17 6.65-.69 9.91-.16.6-.34 1.21-.54 1.81l1.22.4c.94-2.75 1.57-5.35 1.99-7.76.57-3.33.75-6.24.76-8.62.01-2.38-.12-4.23-.24-5.48Z" class="cls-6"/><path d="M1259.11 216.13c-.38-2.22-1.15-5.44-2.8-9.16-.33-.76-.7-1.54-1.11-2.33a46.68 46.68 0 0 0-1.76-3.15c-.08-.13-.16-.27-.25-.4-1.27-2.03-2.79-4.1-4.59-6.12-1.71-1.9-3.65-3.74-5.86-5.42-.13-.11-.26-.2-.4-.31-.08-.06-.17-.12-.26-.19l-.33 1.28c.41.3.81.6 1.2.91 1.79 1.4 3.42 2.9 4.87 4.44a47.775 47.775 0 0 1 5.33 6.76 48.97 48.97 0 0 1 2.69 4.73c1.79 3.61 2.7 6.76 3.17 8.96.15.7.26 1.31.33 1.81.06.37.1.67.13.92l.03.23c-.05-.56-.16-1.57-.41-2.97Zm-1.69-16.03c-1.45-3.23-3.49-7-6.58-10.62a40.86 40.86 0 0 0-5.32-5.17c-.57-.46-1.18-.9-1.79-1.34-.12.43-.23.86-.35 1.29.47.33.93.66 1.37 1.01 1.98 1.54 3.76 3.2 5.3 4.9 3.11 3.41 5.3 7.02 6.9 10.15.97 1.92 1.75 3.67 2.35 5.15l.21-.07c-.53-1.52-1.21-3.32-2.1-5.3Z" class="cls-2"/><path d="M1256.74 244.35c-.1.24-.19.5-.28.74 0 .03-.02.05-.03.08-.26.69-.54 1.39-.85 2.09-.57 1.33-1.22 2.68-1.91 4.03a76.048 76.048 0 0 1-3.58 6.35 76.414 76.414 0 0 1-3.37 4.89c.08 1.09.15 2.18.21 3.27 1.09-1.37 2.08-2.71 2.95-3.98.76-1.17 1.51-2.39 2.25-3.68a81.77 81.77 0 0 0 6.06-13.13c.02-.05.03-.1.05-.15l-1.49-.52Z" class="cls-6"/><path d="M1256.96 200.32c-1.6-3.13-3.79-6.74-6.9-10.15-1.55-1.7-3.32-3.36-5.3-4.9-.44-.35-.9-.68-1.37-1.01-.1.35-.19.7-.29 1.05.1.06.19.11.29.18.19.13.38.26.56.39 2.78 1.95 5.33 4.29 7.59 6.93 3.31 3.87 5.88 8.19 7.77 12.66a62.05 62.05 0 0 0-2.35-5.15Z" class="cls-1"/><path d="M1255.78 241.32c-.89 2.57-2.17 4.99-3.8 7.12-1 1.31-2.15 2.51-3.36 3.55-.02.02-.05.04-.07.06-.5.92-1.05 1.85-1.66 2.8-.01.01-.02.04-.03.05-.26.4-.53.81-.8 1.21.2 1.54.36 3.09.5 4.64.93-1.22 1.82-2.45 2.64-3.68 1.38-2.07 2.61-4.14 3.69-6.18.31-.57.61-1.14.9-1.71.46-.89.89-1.77 1.29-2.65.25-.54.49-1.08.71-1.62.44-1.08.84-2.15 1.2-3.19s-1.22-.4-1.22-.4Zm-13.01-11.57a6.24 6.24 0 0 1-.69 1.9c-.48.86-1.25 1.64-2.21 2.24.37.71.69 1.43.99 2.15.92-.69 1.57-1.5 2.03-2.27.45-.76.71-1.49.89-2.08.23-.81.31-1.39.37-1.66 0-.03.01-.06.02-.09l-1.39-.2Z" class="cls-6"/><path d="M1255.3 229.82c-.38-3.03-1.38-5.94-2.98-8.41a19.572 19.572 0 0 0-1.56-2.08c-.47-.54-.96-1.05-1.49-1.53-.17-.15-.34-.31-.52-.46-.83-.69-1.71-1.3-2.64-1.82-.67-.38-1.37-.71-2.08-.99-.36-.14-.73-.27-1.09-.38-1.55-.49-3.15-.76-4.74-.81-.87-.03-1.74.03-2.59.12-.24.84-.49 1.69-.74 2.53 1.98-.48 4.1-.65 6.22-.33 1.2.18 2.38.51 3.5 1.04 1.13.54 2.17 1.24 3.11 2.07 1.89 1.66 3.32 3.83 4.3 6.19.98 2.37 1.53 4.93 1.65 7.55.11 2.61-.21 5.23-1.01 7.66-.4 1.22-.92 2.39-1.57 3.49-.65 1.08-1.36 2.09-2.13 3.05-1.15 1.43-2.42 2.7-3.76 3.86.1.57.21 1.14.3 1.72.67-.51 1.34-1.03 1.98-1.59.35-.31.69-.63 1.02-.94a21.78 21.78 0 0 0 2.39-2.77c1.7-2.34 2.98-5.06 3.75-7.93.81-3.05 1.03-6.21.65-9.25Z" class="cls-6"/><path d="M1242.38 226.22a6.09 6.09 0 0 0-.94-1.55c-.11-.14-.22-.26-.33-.37.1.11.21.24.32.38.3.38.64.89.91 1.55.27.67.47 1.48.44 2.42-.02.92-.27 1.95-.85 2.91-.49.82-1.25 1.55-2.18 2.1.04.07.08.15.12.22.96-.6 1.73-1.38 2.21-2.24.35-.62.57-1.27.69-1.9a6.102 6.102 0 0 0-.4-3.53Z" class="cls-2"/><path d="M1252.02 224.97c-.98-2.36-2.41-4.53-4.3-6.19-.94-.83-1.98-1.53-3.11-2.07-1.12-.53-2.31-.86-3.5-1.04-2.13-.32-4.24-.16-6.22.33-.11.39-.23.77-.34 1.16 2.03-.54 4.23-.71 6.38-.35 1.09.19 2.17.5 3.17.99s1.95 1.14 2.8 1.9c1.71 1.54 3.03 3.55 3.94 5.76.91 2.22 1.42 4.65 1.53 7.12.11 2.47-.19 4.94-.93 7.22-.37 1.14-.84 2.23-1.44 3.24-.6 1.02-1.27 2-2 2.92-.94 1.19-1.97 2.25-3.05 3.26.09.46.18.91.26 1.37 1.34-1.16 2.61-2.43 3.76-3.86.77-.96 1.48-1.97 2.13-3.05.65-1.1 1.17-2.27 1.57-3.49.79-2.44 1.11-5.05 1.01-7.66-.12-2.62-.67-5.18-1.65-7.55Z" class="cls-2"/><path d="M1252.37 232.57c-.11-2.46-.62-4.89-1.53-7.12-.91-2.21-2.23-4.22-3.94-5.76-.85-.76-1.8-1.41-2.8-1.9-1-.48-2.08-.8-3.17-.99-2.15-.36-4.36-.19-6.38.35-.3 1.02-.61 2.03-.93 3.04-.2.63-.42 1.24-.66 1.85 1.35 1.66 2.68 3.37 3.74 5.21 1.02 1.75 1.76 3.65 2.55 5.51.17.3.34.61.5.91.94-.55 1.69-1.29 2.18-2.1.58-.96.83-1.99.85-2.91.02-.93-.17-1.75-.44-2.42-.26-.66-.6-1.18-.91-1.55-.11-.14-.22-.27-.32-.38.11.11.21.23.33.37.31.38.66.89.94 1.55a6.102 6.102 0 0 1 .4 3.53l1.39.2c.02-.07.04-.1.05-.1.04 0 .13.67-.11 1.94-.13.63-.34 1.41-.78 2.25-.43.84-1.1 1.75-2.06 2.55-.05.04-.11.09-.17.13.14.37.27.75.39 1.13.75 1.44 1.37 2.94 1.82 4.5.65 2.27 1.18 4.57 1.64 6.88 1.08-1.01 2.11-2.07 3.05-3.26.73-.92 1.41-1.9 2-2.92.59-1.01 1.07-2.1 1.44-3.24.73-2.28 1.03-4.75.93-7.22Z" class="cls-6"/><path d="M1244.93 207.14a22.5 22.5 0 0 0-3.66-3.79c-.76-.61-1.59-1.18-2.44-1.73-.24.93-.49 1.85-.73 2.78 1.39.81 2.65 1.72 3.74 2.66 2.67 2.32 4.42 4.75 5.57 6.74.17.29.32.56.46.82.6.38 1.18.8 1.74 1.24-.08-.23-.18-.46-.27-.69-1.01-2.52-2.35-5.34-4.4-8.03Z" class="cls-7"/><path d="M1241.24 207.77a25.16 25.16 0 0 0-3.41-2.33c-.31 1.15-.62 2.3-.93 3.44.18.08.37.16.55.24 1.2.6 2.28 1.23 3.21 1.91.54.38 1.01.78 1.44 1.18 1.64.37 3.25.97 4.75 1.8-1.22-1.87-3-4.12-5.6-6.26Z" class="cls-4"/><path d="M1236.98 210.1c-.12-.05-.25-.1-.37-.15-.17.62-.35 1.25-.53 1.87.72-.06 1.44-.1 2.17-.08.67.01 1.36.07 2.03.15-.05-.03-.11-.07-.16-.1-.9-.6-1.97-1.16-3.15-1.69Z" class="cls-2"/><path d="M1137.07 193.94c-.12.36-.24.72-.36 1.07-.77 2.3.51 3.48.44-1.21-.02.05-.05.09-.07.14Z" class="cls-1"/><path d="M1239.72 255.81c-3.39-23.32-12.93-32.51-12.93-32.51l20.73-71.36-245.23-.51 12.35 19.85 11.87 40.44-29.43 57.15 28.75.06-.11 53.22-13.66-.03-66.17 67.89c89.66.19 108.56 4.27 148.04-13.49 39.48-17.76 47.84-50.15 47.84-50.15l97.23.2.06-28.39h-6.53c9.31-9.04 10.59-19.07 7.2-42.38Zm-1.14-97.16-12.99 44.72h-4.33c-16.51-.37-28.85-1.89-45.41-4.94-16.55-3.04-37.6-12.98-51-19.24-11.89-5.56-26.84-13.67-52.15-20.88l165.87.34Zm-224.16-.47 19.53.04c.06 0 .11.01.17.01 5.88.01 14.59.87 26.89 3.91 26.55 6.56 42.39 14.19 55.12 20.33 2.05.99 4 1.93 5.87 2.8l.76.36c13.85 6.48 34.77 16.26 51.86 19.41 18.09 3.33 30.68 4.69 46.61 5.04h2.39l-2.41 8.29c-8.2-.18-15.37-.65-22.54-1.44-7.27-.81-14.53-1.95-22.86-3.49-16.55-3.04-37.6-12.98-51-19.24s-30.64-15.76-62.23-23.57c-31.59-7.81-41.75-2.11-41.75-2.11l-6.43-10.33Zm177.87 109.1c.02-11.35-8.66-34.58-13.42-46.47 5.55.97 10.63 1.74 15.5 2.35 5.55 10.86 15.84 33.52 15.82 45.82-.03 14.98-3.21 22.61-12.39 29.13l-15.79-.03c6.64-8.37 10.26-18.63 10.28-30.8Zm-19.35 30.78-14.05-.03c6.41-7.49 7.41-15.21 7.45-33.87.03-16.57-10.21-39.22-16.6-51.72 7.12 2.77 14.4 5.24 21.24 6.8 5.04 12.14 14.61 37.37 14.59 48.03-.03 12.41-4.31 22.74-12.63 30.8Zm-164.84-35.88 25.63-49.76-11.02-37.53 1.16-.37c.05-.02 2.98-1.28 10.22-1.27 5.88.01 14.59.87 26.89 3.91 26.55 6.56 42.39 14.19 55.12 20.33 2.05.99 4 1.93 5.87 2.8l.76.36c5 2.34 10.93 5.1 17.25 7.82 4.21 7.56 19.66 36.6 19.62 55.68-.04 21.48-1.15 25.99-10.21 33.87l-24.85-.05h-4.64l-7.17-.02c-6.88 14.54-26.42 24.34-37.95 24.32l-42.33-.09.04-20.13 31.8.07-31.77-15.37v-7.1s30.39 10.2 37.11 2.61c6.71-7.59 3.11-13.21.03-15.39-3.07-2.18-10.86-2.74-11.06 6.68 0 0 5.61-7.67 8.57-2.43 2.96 5.25-2.39 9.39-7.96 9.02-5.57-.37-23.69-3.96-26.66-5.87l.02-12.04-24.47-.05Zm110.45 39.33-.3.79c-.11.29-11.53 29.61-37.29 45.13-17.58 10.59-34.87 12.33-59.58 12.28-1.81 0-3.68-.02-5.57-.04l30.86-30.74 28.09.06c14.41.03 35.77-11.23 43.78-27.48Zm-103.66 27.35 13.68.03h3.86l4.73.02-30.75 30.62-3.39-.06c-5.58-.1-11.47-.2-17.72-.25l29.59-30.35Zm-23.5 54.8c-1.41-.02-2.81-.03-4.28-.05-7.7-.09-16.1-.18-25.35-.25l17.01-17.45c4.37.03 8.56.08 12.65.14l-.04 17.6Zm20.55.17c-4.32 0-8.94-.05-13.83-.09l.04-17.56c14.56.25 27.38.47 39-.2l.78 17.31c-7.58.42-16.03.56-25.98.54Zm32.7-1.01-.78-17.32-.53.02c12.46-1.14 23.58-3.61 34.11-8.62l7.54 16.16c-13.8 5.67-25.51 8.47-40.35 9.76Zm46.53-12.42-7.77-16.65c.34-.2.69-.37 1.04-.58 12.3-7.41 21.5-17.59 27.97-26.71l17.51 10.16c-5.79 9.99-17.21 24.09-38.74 33.77Zm96.35-50.64-50.95-.11-1.3 5.05c-.08.31-.73 2.56-2.26 5.95l-16.87-9.79c5.75-9.18 8.4-16.19 8.4-16.19l63.01.13-.03 14.94Zm44.77.09-38.05-.08.03-14.94 21.69.04 7.84.02 8.52.02-.03 14.94Zm-4.44-26.5-4.96 4.81-14.9-.03c6.32-6.88 8.9-15.61 8.92-29.14.03-13.08-9.29-34.05-14.6-44.96 5.56.51 11.07.84 16.99 1l-.09.3 2.92 2.82s7.98 8.32 10.94 28.63c3.46 23.78 1.29 30.26-5.22 36.57ZM0 108.34h67.6s3.3 4.72 1.86 8.76c0 0-12.66-1.04-9.33 14.37 3.32 15.4 30.81 155.55 30.81 155.55s96.4-153.34 99.47-158.94c3.07-5.61 3.26-10.85-.9-10.67s-4.52-2.95 1.27-9.07h35.63s.36 7.98-7.96 9.43c-8.32 1.45-11.94 4.7-14.65 8.32-2.71 3.62-113 181.66-113 181.66H69.64c-4.64 0-17.86-1.26-21.29-16.97S18.34 138.11 17.33 131.86c-1.01-6.24-4.83-14.1-10.07-14.1s-7.25-1.12-7.25-9.42Zm287.87 191.29c-5.15-1.45-5.05-6.9-6.33-12.74-1.27-5.84-21.34-108.74-23.88-120.68-2.54-11.94-7.11-12.96-11.94-12.96h-27.18c0 9.15 5.34 8.38 5.34 8.38s-65.55 105.18-75.2 120.43c-9.65 15.24-11.94 17.78-17.53 18.55-5.59.76-8.27 7.14-8.27 7.14h30.45c3.41-4.42 4.63-7.16 1.25-7.16s-4.66-2.73-1.61-7.88c3.06-5.15 26.05-41.81 26.05-41.81l64.96.32s.64 2.41 4.5 22.99 4.98 25.08-.8 25.89c-5.79.8-2.09 7.64-2.09 7.64h49.52c0-6.19-2.09-6.67-7.24-8.12Zm-103.71-56.6 43.73-71.71 14.31 71.71h-58.05Zm269.35 64.72H302.29s-2.13-5.28 4.78-6.61 7.92-7.15 9.24-13.9 24.09-114.88 24.62-117.79c.53-2.91.4-6.62-2.65-7.41-3.04-.79-7.41 1.06-3.84-7.01h52.41s2.12 5.29-3.31 6.35c-5.43 1.06-7.01.26-10.32 16.01-3.31 15.75-22.73 105.14-24.01 111.02-1.28 5.89-4.46 12.64 7.7 12.64h49.75c5.15 0 16.84-3.9 22.15-14.19 5.3-10.29 7.64-12.94 21.99-13.72l2.7 34.61ZM625.72 190.1l16.78-35.08H491.71c-3.57 8.07.79 6.22 3.84 7.01 3.04.79 3.18 4.5 2.65 7.41-.53 2.91-23.29 111.04-24.62 117.79-1.32 6.75-2.33 12.57-9.24 13.9s-4.78 6.61-4.78 6.61h151.22l-2.7-34.61c-14.35.78-18.92 2.79-23.13 13.03-4.41 10.71-15.86 14.89-21 14.89H514.2c-12.16 0-8.98-6.75-7.7-12.64.65-2.99 5.95-27.92 11.37-53.5h22.19c5.83 0 20.31.94 19.21 9.92-1.1 8.97 10.08 7.24 10.08 7.24l8.76-41.31c-5.25 0-9.87-1.67-13.64 7.46-3.78 9.13-17.63 9.12-21.41 9.12-2.76 0-16.47-.17-23.69-.26 4.76-22.44 9.29-43.09 10.52-49.05 2.48-12.01 4.22-16.14 10.09-16.14s45.38-.18 52.17-.18c6.78 0 18.34 4.22 16.69 13.75-1.65 9.54 3.68 13.87 16.92 14.63Zm318 0 16.78-35.08H809.71c-3.57 8.07.79 6.22 3.84 7.01 3.04.79 3.18 4.5 2.65 7.41-.53 2.91-23.29 111.04-24.62 117.79-1.32 6.75-2.33 12.57-9.24 13.9s-4.78 6.61-4.78 6.61h151.22l-2.7-34.61c-14.35.78-18.92 2.79-23.13 13.03-4.41 10.71-15.86 14.89-21 14.89H832.2c-12.16 0-8.98-6.75-7.7-12.64.65-2.99 5.95-27.92 11.37-53.5h22.19c5.83 0 20.31.94 19.21 9.92-1.1 8.97 10.08 7.24 10.08 7.24l8.76-41.31c-5.25 0-9.87-1.67-13.64 7.46-3.78 9.13-17.63 9.12-21.41 9.12-2.76 0-16.47-.17-23.69-.26 4.76-22.44 9.29-43.09 10.52-49.05 2.48-12.01 4.22-16.14 10.09-16.14s45.38-.18 52.17-.18 18.34 4.22 16.69 13.75c-1.65 9.54 3.68 13.87 16.92 14.63ZM670.01 307.75h52.9s1.68-3.56-4.04-3.78c-5.72-.22-3.08-12.1-.66-22.22s21.78-100.77 23.32-108.91 3.74-11.22 18.48-11.22 20.9 1.32 24.64 12.76c3.74 11.44.25 15.15 16.37 15.15l2.21-34.5H653.39l-12.85 34.75s11.44 2.42 18.26-7.7c6.82-10.12 10.12-20.46 31.46-20.46 21.34 0 19.8 1.54 17.38 12.32s-24.42 114.63-25.74 119.91c-1.32 5.28-3.08 8.58-5.94 9.24s-5.95 1.41-5.95 4.66Z" class="cls-3"/></g></svg>